<svg width="32" height="24" viewBox="0 0 32 24" fill="none" xmlns="http://www.w3.org/2000/svg">
<path fill-rule="evenodd" clip-rule="evenodd" d="M26.8127 5.8909C26.7238 5.96176 26.6135 6.00023 26.4998 5.99995H5.49977C5.38609 6.00023 5.27571 5.96176 5.18683 5.8909C5.09794 5.82003 5.03586 5.72098 5.01082 5.6101C4.98578 5.49921 4.99927 5.3831 5.04907 5.28091C5.09887 5.17872 5.18201 5.09655 5.28477 5.04795L15.7848 0.0479487C15.852 0.0163708 15.9255 0 15.9998 0C16.0741 0 16.1475 0.0163708 16.2148 0.0479487L26.7148 5.04795C26.8175 5.09655 26.9007 5.17872 26.9505 5.28091C27.0003 5.3831 27.0138 5.49921 26.9887 5.6101C26.9637 5.72098 26.9016 5.82003 26.8127 5.8909ZM6.08374 9.277C6.12936 9.34555 6.1912 9.40177 6.26377 9.44068C6.33634 9.47958 6.4174 9.49996 6.49974 9.5H25.4997C25.5821 9.49996 25.6631 9.47958 25.7357 9.44068C25.8083 9.40177 25.8701 9.34555 25.9157 9.277L26.9157 7.777C26.9658 7.70171 26.9946 7.61423 26.9989 7.52389C27.0032 7.43355 26.983 7.34373 26.9403 7.264C26.8976 7.18427 26.8341 7.1176 26.7565 7.07111C26.6789 7.02462 26.5902 7.00005 26.4997 7H5.49974C5.4093 7.00005 5.32056 7.02462 5.24298 7.07111C5.16541 7.1176 5.10189 7.18427 5.0592 7.264C5.01651 7.34373 4.99625 7.43355 5.00057 7.52389C5.00489 7.61423 5.03364 7.70171 5.08374 7.777L6.08374 9.277ZM7.5 10.5H10.5C10.7761 10.5 11 10.7239 11 11V18.5C11 18.7761 10.7761 19 10.5 19H7.5C7.22386 19 7 18.7761 7 18.5V11C7 10.7239 7.22386 10.5 7.5 10.5ZM25.3838 20.18L27.8838 23.18C27.9446 23.253 27.9834 23.3418 27.9955 23.436C28.0077 23.5303 27.9927 23.626 27.9524 23.712C27.9121 23.7981 27.8482 23.8709 27.768 23.9219C27.6879 23.9729 27.5948 24 27.4998 24H4.49981C4.40481 24 4.31178 23.9729 4.23162 23.9219C4.15145 23.8709 4.08748 23.7981 4.04719 23.712C4.0069 23.626 3.99195 23.5303 4.00411 23.436C4.01626 23.3418 4.05501 23.253 4.11581 23.18L6.61581 20.18C6.66272 20.1237 6.72143 20.0784 6.78778 20.0473C6.85414 20.0162 6.92653 20 6.99981 20H24.9998C25.0731 20 25.1455 20.0162 25.2118 20.0473C25.2782 20.0784 25.3369 20.1237 25.3838 20.18ZM17.5 10.5H14.5C14.2239 10.5 14 10.7239 14 11V18.5C14 18.7761 14.2239 19 14.5 19H17.5C17.7761 19 18 18.7761 18 18.5V11C18 10.7239 17.7761 10.5 17.5 10.5ZM21.5 10.5H24.5C24.7761 10.5 25 10.7239 25 11V18.5C25 18.7761 24.7761 19 24.5 19H21.5C21.2239 19 21 18.7761 21 18.5V11C21 10.7239 21.2239 10.5 21.5 10.5Z" fill="#C4C4C4" fill-opacity="0.5"/>
</svg>
