<svg width="32" height="24" viewBox="0 0 32 24" fill="none" xmlns="http://www.w3.org/2000/svg">
<path fill-rule="evenodd" clip-rule="evenodd" d="M10 0H25C25.7956 0 26.5587 0.31607 27.1213 0.87868C27.6839 1.44129 28 2.20435 28 3V12C28.0002 12.5364 27.8566 13.063 27.5842 13.525C27.3118 13.987 26.9205 14.3676 26.451 14.627C26.298 14.7043 26.1276 14.741 25.9564 14.7335C25.7851 14.7261 25.6186 14.6747 25.4729 14.5843C25.3272 14.4939 25.2072 14.3676 25.1243 14.2175C25.0415 14.0673 24.9987 13.8984 25 13.727C24.9944 13.5578 25.0346 13.3902 25.1165 13.2419C25.1984 13.0937 25.3188 12.9704 25.465 12.885C25.6264 12.8002 25.7615 12.673 25.8558 12.517C25.9501 12.361 25.9999 12.1823 26 12V7.25C26 7.1837 25.9737 7.12011 25.9268 7.07322C25.8799 7.02634 25.8163 7 25.75 7H9.25C9.1837 7 9.12011 7.02634 9.07322 7.07322C9.02634 7.12011 9 7.1837 9 7.25V7.5C9 7.76522 8.89464 8.01957 8.70711 8.20711C8.51957 8.39464 8.26522 8.5 8 8.5C7.73478 8.5 7.48043 8.39464 7.29289 8.20711C7.10536 8.01957 7 7.76522 7 7.5V3C7 2.20435 7.31607 1.44129 7.87868 0.87868C8.44129 0.31607 9.20435 0 10 0ZM9.07322 3.92678C9.12011 3.97366 9.1837 4 9.25 4H25.75C25.8163 4 25.8799 3.97366 25.9268 3.92678C25.9737 3.87989 26 3.8163 26 3.75V3C26 2.73478 25.8946 2.48043 25.7071 2.29289C25.5196 2.10536 25.2652 2 25 2H10C9.73478 2 9.48043 2.10536 9.29289 2.29289C9.10536 2.48043 9 2.73478 9 3V3.75C9 3.8163 9.02634 3.87989 9.07322 3.92678ZM6.10526 10H21.8947C22.4531 10 22.9886 10.2107 23.3834 10.5858C23.7782 10.9609 24 11.4696 24 12V22C24 22.5304 23.7782 23.0391 23.3834 23.4142C22.9886 23.7893 22.4531 24 21.8947 24H6.10526C5.54691 24 5.01143 23.7893 4.61662 23.4142C4.2218 23.0391 4 22.5304 4 22V12C4 11.4696 4.2218 10.9609 4.61662 10.5858C5.01143 10.2107 5.54691 10 6.10526 10ZM10.1616 15.8536C10.2603 15.7598 10.3158 15.6326 10.3158 15.5V13.5C10.3158 13.3674 10.2603 13.2402 10.1616 13.1464C10.0629 13.0527 9.92906 13 9.78947 13H7.68421C7.54462 13 7.41075 13.0527 7.31205 13.1464C7.21335 13.2402 7.15789 13.3674 7.15789 13.5V15.5C7.15789 15.6326 7.21335 15.7598 7.31205 15.8536C7.41075 15.9473 7.54462 16 7.68421 16H9.78947C9.92906 16 10.0629 15.9473 10.1616 15.8536ZM17.86 20.49C18.2454 20.8188 18.7452 21.0005 19.2632 21C19.6045 21.0002 19.9408 20.9215 20.243 20.7708C20.5452 20.62 20.8044 20.4017 20.998 20.1347C21.1917 19.8676 21.3141 19.5598 21.3547 19.2378C21.3953 18.9159 21.3528 18.5893 21.231 18.2864C21.1092 17.9834 20.9117 17.7132 20.6555 17.4989C20.3993 17.2846 20.0921 17.1327 19.7604 17.0563C19.4286 16.9799 19.0823 16.9813 18.7512 17.0603C18.4202 17.1394 18.1143 17.2937 17.86 17.51C17.8116 17.551 17.749 17.5736 17.6842 17.5736C17.6194 17.5736 17.5568 17.551 17.5084 17.51C17.2056 17.2524 16.8307 17.0836 16.4291 17.024C16.0275 16.9644 15.6162 17.0165 15.2451 17.174C14.874 17.3316 14.5588 17.5879 14.3377 17.9119C14.1165 18.2359 13.9988 18.6138 13.9988 19C13.9988 19.3862 14.1165 19.7641 14.3377 20.0881C14.5588 20.4121 14.874 20.6684 15.2451 20.826C15.6162 20.9835 16.0275 21.0356 16.4291 20.976C16.8307 20.9164 17.2056 20.7476 17.5084 20.49C17.5568 20.449 17.6194 20.4264 17.6842 20.4264C17.749 20.4264 17.8116 20.449 17.86 20.49Z" fill="#C4C4C4" fill-opacity="0.5"/>
</svg>
