<svg width="32" height="24" viewBox="0 0 32 24" fill="none" xmlns="http://www.w3.org/2000/svg">
<path d="M23.3152 13.2431C22.6323 12.4195 21.6632 11.8279 20.3997 11.4722C21.3156 11.1165 22.0108 10.5906 22.481 9.89463C22.9553 9.19865 23.1925 8.42146 23.1925 7.55921C23.1925 6.43789 22.7959 5.45964 21.9985 4.62832C21.2052 3.797 20.2852 3.27888 19.2466 3.07395C18.8745 3.00048 18.437 2.94248 17.934 2.89222V0L15.7668 0V2.77622C15.3866 2.76849 14.9858 2.76462 14.5647 2.76462H13.9513V0L11.7841 0V2.76462H7V5.55631H9.28985C9.5679 5.55631 9.79689 5.76897 9.79689 6.03577V18.057C9.79689 18.32 9.57199 18.5365 9.29394 18.5365L7.00409 18.5404V21.3436H11.7882V24H13.9554V21.3436H14.7323C15.0962 21.3436 15.4438 21.3398 15.7709 21.332V24H17.9381V21.2276C18.253 21.2006 18.5433 21.1658 18.8091 21.131C19.8068 20.9879 20.7227 20.7134 21.561 20.3035C22.3992 19.8937 23.0739 19.3137 23.5769 18.5674C24.0839 17.8212 24.3374 16.986 24.3374 16.0696C24.3333 15.0063 23.9939 14.0667 23.3152 13.2431ZM15.5583 5.55631C17.9831 5.55631 19.1934 6.2871 19.1934 7.7448C19.1934 8.49492 18.9236 9.06332 18.3879 9.44998C17.8522 9.83664 16.9077 10.03 15.5583 10.03H13.7878V5.55631H15.5583ZM19.6637 17.535C19.2466 17.9681 18.7028 18.2426 18.0403 18.3586C17.3779 18.4746 16.3352 18.5326 14.9082 18.5326H13.8164V13.274H15.4724C16.6215 13.274 17.5129 13.3436 18.1426 13.4828C18.7723 13.622 19.2875 13.9004 19.6882 14.318C20.0889 14.7356 20.2893 15.2537 20.2893 15.8685C20.2934 16.5491 20.0848 17.102 19.6637 17.535Z" fill="#C4C4C4" fill-opacity="0.5"/>
</svg>
