<svg width="24" height="24" viewBox="0 0 24 24" fill="none" xmlns="http://www.w3.org/2000/svg">
<path fill-rule="evenodd" clip-rule="evenodd" d="M9.16407 1.09651C9.51305 0.930967 9.92617 0.981209 10.2253 1.22557C10.3569 1.33306 10.507 1.45165 10.6716 1.58167C11.6639 2.36554 13.1823 3.56491 14.3347 5.25317C15.0393 6.28548 15.5977 7.61753 15.9742 8.68611C16.0223 8.8228 16.0679 8.9564 16.1108 9.08589C16.3356 8.70673 16.523 8.22007 16.5975 7.59554C16.6486 7.16686 16.9691 6.81939 17.3922 6.73381C17.8154 6.64823 18.2457 6.84387 18.4594 7.21899C18.7585 7.74412 18.9634 8.10723 19.1629 8.56428C19.3586 9.01265 19.5426 9.53634 19.8266 10.3901C20.4402 12.2345 20.4999 13.4501 20.4999 14.5491C20.4999 19.3041 16.6549 23 12 23C7.37417 23 3.5 19.4922 3.5 14.7091C3.5 13.6527 3.61115 12.0107 4.4119 10.7087C4.95753 9.82158 5.35271 9.39762 5.83403 8.88126C5.97643 8.72849 6.12638 8.56762 6.29 8.38428C6.4304 8.22696 6.54261 8.10348 6.63616 8.00054C6.82537 7.79234 6.93831 7.66806 7.05407 7.51733C7.20515 7.32063 7.35764 7.07843 7.65975 6.51024C7.90311 6.05255 8.14223 5.29933 8.31971 4.4295C8.49454 3.57261 8.59265 2.68659 8.59265 2.00001C8.59265 1.61376 8.81509 1.26204 9.16407 1.09651ZM10.4319 3.96458C10.3886 4.25431 10.3374 4.54464 10.2793 4.82933C10.0864 5.77494 9.80054 6.74412 9.42565 7.44919C9.10951 8.04374 8.89482 8.4041 8.64023 8.73558C8.4718 8.95487 8.2799 9.16614 8.0548 9.41395C7.96895 9.50847 7.87826 9.60831 7.7822 9.71594M10.4319 3.96458C11.2 4.61569 12.0106 5.39591 12.6829 6.38075C13.2417 7.19944 13.7317 8.3397 14.0878 9.3506C14.2629 9.84787 14.3994 10.2957 14.4909 10.6308C14.5369 10.7989 14.5699 10.9329 14.5906 11.0269C14.6011 11.0748 14.6061 11.1025 14.6082 11.1144C14.6339 11.4662 14.8439 11.7808 15.1636 11.9383C15.5052 12.1067 15.9128 12.0663 16.2148 11.8343C16.2351 11.8187 16.2597 11.8004 16.2882 11.7792C16.5553 11.5806 17.1636 11.1281 17.6935 10.3252C17.762 10.5231 17.8392 10.7518 17.9289 11.0215C18.4551 12.603 18.4999 13.5917 18.4999 14.5491C18.4999 18.1702 15.5798 21 12 21C8.39113 21 5.5 18.302 5.5 14.7091C5.5 13.7091 5.6248 12.5543 6.11548 11.7565C6.55041 11.0493 6.80262 10.7783 7.24434 10.3036C7.39619 10.1405 7.57045 9.95322 7.7822 9.71594" fill="#1C1F26"/>
</svg>
