<svg width="14" height="14" viewBox="0 0 14 14" fill="none" xmlns="http://www.w3.org/2000/svg">
<path fill-rule="evenodd" clip-rule="evenodd" d="M7 12.8333C10.2217 12.8333 12.8333 10.2217 12.8333 7C12.8333 3.77834 10.2217 1.16667 7 1.16667C3.77834 1.16667 1.16667 3.77834 1.16667 7C1.16667 10.2217 3.77834 12.8333 7 12.8333ZM7 14C10.866 14 14 10.866 14 7C14 3.13401 10.866 0 7 0C3.13401 0 0 3.13401 0 7C0 10.866 3.13401 14 7 14Z" fill="#77797D"/>
<path d="M6.22217 5.05556V3.5L7.77772 3.11111V4.66667L6.22217 5.05556Z" fill="#77797D"/>
<path d="M7.77772 5.83333L6.22217 6.22222V11.2778L7.77772 10.8889V5.83333Z" fill="#77797D"/>
</svg>
