<svg width="24" height="24" viewBox="0 0 24 24" fill="none" xmlns="http://www.w3.org/2000/svg">
<path d="M7.00007 1C9.72593 1 11.2389 3.30536 12.1494 7.17072L12.2242 7.50793L12.3493 8.13292L12.5272 9.09786L12.7031 10.1079L12.9814 11.8056L13.148 12.6227L13.3081 13.3669C13.3346 13.4858 13.361 13.6024 13.3874 13.7171L13.5481 14.3853C13.7114 15.0363 13.8855 15.6449 14.0953 16.2914C15.0684 19.2909 16.2787 21 17.5001 21C18.3765 21 19.3568 19.4315 20.0984 16.7348C20.3882 15.6808 20.6213 14.544 20.8014 13.4061L20.8879 12.8305L20.9831 12.0983L21.005 11.9005C21.06 11.351 21.55 10.95 22.0996 11.005C22.6491 11.0599 23.0501 11.55 22.9951 12.0995L22.9425 12.5537L22.8682 13.1104L22.7768 13.7189C22.5859 14.9248 22.3385 16.1317 22.0268 17.2652C21.0496 20.8185 19.6862 23 17.5001 23C15.0534 23 13.4216 20.6956 12.1929 16.9086C11.8571 15.8737 11.6094 14.9409 11.3603 13.8226L11.1931 13.0463L11.016 12.1717L10.6497 9.97038L10.4874 9.05685L10.3564 8.36041L10.2754 7.95878L10.2027 7.62928C9.48739 4.59253 8.44222 3 7.00007 3C5.86779 3 4.77634 4.5592 3.9579 7.28735C3.64318 8.33641 3.39411 9.46858 3.20522 10.6019C3.1721 10.8006 3.14207 10.9921 3.11502 11.1752L3.02876 11.808L2.99511 12.0995C2.94016 12.649 2.45011 13.05 1.90057 12.995C1.35103 12.9401 0.950083 12.45 1.00504 11.9005L1.05902 11.4428L1.13635 10.8839C1.16521 10.6885 1.19719 10.4846 1.23243 10.2731C1.43417 9.06267 1.70072 7.85109 2.04225 6.71265C3.09881 3.1908 4.63236 1 7.00007 1ZM8.50007 11C9.05236 11 9.50007 11.4477 9.50007 12C9.50007 12.5128 9.11403 12.9355 8.6167 12.9933L8.50007 13H5.50007C4.94779 13 4.50007 12.5523 4.50007 12C4.50007 11.4872 4.88612 11.0645 5.38345 11.0067L5.50007 11H8.50007ZM18.5001 11C19.0524 11 19.5001 11.4477 19.5001 12C19.5001 12.5128 19.114 12.9355 18.6167 12.9933L18.5001 13H15.5001C14.9478 13 14.5001 12.5523 14.5001 12C14.5001 11.4872 14.8861 11.0645 15.3835 11.0067L15.5001 11H18.5001Z" fill="#CAE2F6"/>
</svg>
