<svg width="120" height="40" viewBox="0 0 120 40" fill="none" xmlns="http://www.w3.org/2000/svg">
<path d="M110.135 0.00013H9.53468C9.16798 0.00013 8.80568 0.00013 8.43995 0.00213C8.1338 0.00413 7.83009 0.00994 7.521 0.01483C6.84951 0.0227318 6.17961 0.0818063 5.5171 0.19154C4.85552 0.303663 4.21467 0.515046 3.61622 0.81854C3.0185 1.1246 2.47235 1.5223 1.99757 1.9972C1.5203 2.47077 1.12246 3.01815 0.81935 3.61829C0.5154 4.21724 0.304641 4.85907 0.19435 5.52161C0.0830109 6.18332 0.0230984 6.85265 0.01515 7.52361C0.00587 7.83021 0.00489 8.13783 0 8.44447V31.5587C0.00489 31.8692 0.00587 32.17 0.01515 32.4806C0.0231008 33.1516 0.0830134 33.8209 0.19435 34.4825C0.304336 35.1455 0.515108 35.7877 0.81935 36.3868C1.12233 36.985 1.52022 37.5302 1.99757 38.0011C2.47054 38.4781 3.01705 38.8761 3.61622 39.1798C4.21467 39.4841 4.85545 39.6968 5.5171 39.8106C6.17972 39.9195 6.84956 39.9786 7.521 39.9874C7.83009 39.9942 8.1338 39.9981 8.43995 39.9981C8.80567 40.0001 9.168 40.0001 9.53468 40.0001H110.135C110.494 40.0001 110.859 40.0001 111.219 39.9981C111.523 39.9981 111.836 39.9942 112.141 39.9874C112.811 39.9791 113.479 39.92 114.141 39.8106C114.804 39.696 115.448 39.4834 116.049 39.1798C116.647 38.8759 117.193 38.478 117.666 38.0011C118.142 37.5284 118.541 36.9836 118.848 36.3868C119.15 35.7872 119.358 35.1451 119.467 34.4825C119.578 33.8208 119.64 33.1516 119.652 32.4806C119.656 32.17 119.656 31.8692 119.656 31.5587C119.664 31.1954 119.664 30.8341 119.664 30.4649V9.53626C119.664 9.17005 119.664 8.80677 119.656 8.44447C119.656 8.13783 119.656 7.83021 119.652 7.52357C119.64 6.85255 119.578 6.18337 119.467 5.52157C119.358 4.85941 119.149 4.21763 118.848 3.61825C118.23 2.41533 117.252 1.43616 116.049 0.81845C115.448 0.515697 114.804 0.30437 114.141 0.19145C113.48 0.0812328 112.811 0.0221378 112.141 0.01469C111.836 0.00981 111.523 0.00395 111.219 0.002C110.859 0 110.494 0 110.135 0V0.00013Z" fill="#A6A6A6"/>
<path d="M8.44484 39.125C8.14016 39.125 7.84284 39.1211 7.54055 39.1143C6.91433 39.1061 6.28957 39.0516 5.67141 38.9512C5.095 38.8519 4.53661 38.6673 4.01467 38.4033C3.49751 38.1415 3.02582 37.7983 2.61767 37.3867C2.20361 36.98 1.85888 36.5082 1.59716 35.9902C1.33255 35.4688 1.14942 34.9099 1.05416 34.333C0.951281 33.7131 0.895621 33.0863 0.887656 32.458C0.881316 32.2471 0.873016 31.5449 0.873016 31.5449V8.44434C0.873016 8.44434 0.881856 7.75293 0.887706 7.5498C0.895332 6.92248 0.950669 6.29665 1.05324 5.67773C1.14868 5.09925 1.33194 4.53875 1.5967 4.01563C1.85746 3.49794 2.20027 3.02586 2.61184 2.61768C3.02294 2.20562 3.49614 1.8606 4.01418 1.59521C4.53492 1.33209 5.09225 1.14873 5.6675 1.05127C6.28769 0.949836 6.91462 0.894996 7.54301 0.88721L8.44533 0.875H111.214L112.127 0.8877C112.75 0.895099 113.371 0.94945 113.985 1.05029C114.566 1.14898 115.13 1.33362 115.656 1.59814C116.694 2.13299 117.539 2.97916 118.071 4.01807C118.332 4.53758 118.512 5.09351 118.606 5.66699C118.71 6.29099 118.768 6.92174 118.78 7.5542C118.783 7.8374 118.783 8.1416 118.783 8.44434C118.791 8.81934 118.791 9.17627 118.791 9.53613V30.4648C118.791 30.8281 118.791 31.1826 118.783 31.54C118.783 31.8652 118.783 32.1631 118.779 32.4697C118.768 33.0909 118.71 33.7104 118.608 34.3232C118.515 34.9043 118.333 35.4675 118.068 35.9932C117.805 36.5056 117.462 36.9733 117.053 37.3789C116.644 37.7927 116.172 38.1379 115.653 38.4014C115.128 38.6674 114.566 38.8527 113.985 38.9512C113.367 39.0522 112.742 39.1067 112.116 39.1143C111.823 39.1211 111.517 39.125 111.219 39.125L110.135 39.127L8.44484 39.125Z" fill="black"/>
<path d="M24.7689 20.3013C24.7796 19.4666 25.0013 18.6483 25.4134 17.9223C25.8254 17.1964 26.4143 16.5864 27.1254 16.1492C26.6737 15.5041 26.0777 14.9731 25.3849 14.5986C24.6921 14.224 23.9215 14.0162 23.1343 13.9916C21.455 13.8153 19.8271 14.9964 18.9714 14.9964C18.0991 14.9964 16.7816 14.0091 15.3629 14.0383C14.4452 14.0679 13.5509 14.3348 12.767 14.8128C11.9831 15.2909 11.3364 15.9638 10.89 16.7661C8.95595 20.1145 10.3985 25.0356 12.2511 27.7422C13.178 29.0676 14.2613 30.548 15.6788 30.4955C17.0658 30.438 17.5839 29.611 19.2582 29.611C20.9169 29.611 21.403 30.4955 22.8492 30.4621C24.3376 30.438 25.2753 29.1309 26.1697 27.793C26.8357 26.8486 27.3481 25.8049 27.6881 24.7005C26.8234 24.3347 26.0855 23.7226 25.5664 22.9403C25.0472 22.158 24.7699 21.2402 24.7689 20.3013Z" fill="white"/>
<path d="M22.0372 12.2113C22.8488 11.2371 23.2486 9.98494 23.1518 8.7207C21.9119 8.85092 20.7667 9.44348 19.9442 10.3803C19.542 10.838 19.234 11.3704 19.0378 11.9472C18.8415 12.524 18.7609 13.1337 18.8005 13.7417C19.4206 13.7481 20.0341 13.6137 20.5948 13.3486C21.1554 13.0835 21.6486 12.6946 22.0372 12.2113Z" fill="white"/>
<path d="M42.3022 27.1397H37.5688L36.4321 30.4961H34.4272L38.9106 18.0781H40.9936L45.477 30.4961H43.438L42.3022 27.1397ZM38.0591 25.5908H41.8111L39.9615 20.1436H39.9097L38.0591 25.5908Z" fill="white"/>
<path d="M55.1597 25.9695C55.1597 28.7829 53.6538 30.5905 51.3813 30.5905C50.8057 30.6207 50.2332 30.4881 49.7294 30.2079C49.2256 29.9278 48.8109 29.5114 48.5327 29.0065H48.4897V33.4909H46.6313V21.4421H48.4302V22.948H48.4644C48.7553 22.4455 49.177 22.0313 49.6847 21.7495C50.1923 21.4676 50.7668 21.3287 51.3472 21.3474C53.645 21.3474 55.1597 23.1638 55.1597 25.9695ZM53.2495 25.9695C53.2495 24.1365 52.3022 22.9314 50.8569 22.9314C49.437 22.9314 48.4819 24.1618 48.4819 25.9695C48.4819 27.7937 49.437 29.0154 50.8569 29.0154C52.3022 29.0154 53.2495 27.8191 53.2495 25.9695Z" fill="white"/>
<path d="M65.1245 25.9694C65.1245 28.7829 63.6187 30.5905 61.3462 30.5905C60.7705 30.6206 60.198 30.488 59.6942 30.2079C59.1905 29.9278 58.7757 29.5114 58.4976 29.0065H58.4546V33.4909H56.5962V21.4421H58.395V22.948H58.4292C58.7201 22.4455 59.1418 22.0313 59.6495 21.7495C60.1571 21.4676 60.7317 21.3287 61.312 21.3474C63.6099 21.3474 65.1245 23.1638 65.1245 25.9694ZM63.2144 25.9694C63.2144 24.1364 62.2671 22.9314 60.8218 22.9314C59.4018 22.9314 58.4468 24.1618 58.4468 25.9694C58.4468 27.7937 59.4018 29.0153 60.8218 29.0153C62.2671 29.0153 63.2144 27.8191 63.2144 25.9694H63.2144Z" fill="white"/>
<path d="M71.7104 27.0362C71.8481 28.2676 73.0444 29.0762 74.6792 29.0762C76.2456 29.0762 77.3726 28.2676 77.3726 27.1572C77.3726 26.1934 76.6929 25.6162 75.0835 25.2207L73.4741 24.833C71.1939 24.2822 70.1353 23.2158 70.1353 21.4854C70.1353 19.3428 72.0024 17.8711 74.6538 17.8711C77.2778 17.8711 79.0767 19.3428 79.1372 21.4854H77.2612C77.1489 20.2461 76.1245 19.4981 74.6274 19.4981C73.1303 19.4981 72.1059 20.2549 72.1059 21.3565C72.1059 22.2344 72.7602 22.751 74.3608 23.1465L75.729 23.4824C78.2768 24.0849 79.3354 25.1084 79.3354 26.9248C79.3354 29.248 77.4848 30.7031 74.5415 30.7031C71.7876 30.7031 69.9282 29.2822 69.8081 27.0361L71.7104 27.0362Z" fill="white"/>
<path d="M83.3462 19.2998V21.4424H85.0679V22.9141H83.3462V27.9053C83.3462 28.6807 83.6909 29.042 84.4477 29.042C84.6521 29.0384 84.8562 29.0241 85.0591 28.999V30.4619C84.7188 30.5255 84.3729 30.5543 84.0268 30.5478C82.1938 30.5478 81.479 29.8593 81.479 28.1035V22.9141H80.1626V21.4424H81.479V19.2998H83.3462Z" fill="white"/>
<path d="M86.065 25.9697C86.065 23.1211 87.7427 21.3311 90.3589 21.3311C92.9839 21.3311 94.6538 23.1211 94.6538 25.9697C94.6538 28.8262 92.9927 30.6084 90.3589 30.6084C87.7261 30.6084 86.065 28.8262 86.065 25.9697ZM92.7603 25.9697C92.7603 24.0156 91.8648 22.8623 90.3589 22.8623C88.853 22.8623 87.9585 24.0244 87.9585 25.9697C87.9585 27.9316 88.853 29.0762 90.3589 29.0762C91.8648 29.0762 92.7602 27.9316 92.7602 25.9697H92.7603Z" fill="white"/>
<path d="M96.186 21.442H97.9585V22.983H98.0015C98.1214 22.5017 98.4034 22.0764 98.8 21.7785C99.1966 21.4806 99.6836 21.3284 100.179 21.3473C100.393 21.3465 100.607 21.3698 100.816 21.4166V23.1549C100.546 23.0723 100.264 23.0343 99.981 23.0426C99.711 23.0316 99.4418 23.0792 99.192 23.1821C98.9421 23.285 98.7175 23.4408 98.5335 23.6386C98.3496 23.8365 98.2106 24.0719 98.1262 24.3286C98.0417 24.5852 98.0139 24.8571 98.0444 25.1256V30.4957H96.186L96.186 21.442Z" fill="white"/>
<path d="M109.384 27.8369C109.134 29.4805 107.534 30.6084 105.486 30.6084C102.852 30.6084 101.217 28.8437 101.217 26.0127C101.217 23.1729 102.861 21.3311 105.408 21.3311C107.913 21.3311 109.488 23.0518 109.488 25.7969V26.4336H103.093V26.5459C103.064 26.8791 103.105 27.2148 103.216 27.5306C103.326 27.8464 103.502 28.1352 103.732 28.3778C103.963 28.6203 104.242 28.8111 104.552 28.9374C104.861 29.0637 105.195 29.1226 105.529 29.1103C105.968 29.1515 106.409 29.0498 106.785 28.8203C107.162 28.5909 107.455 28.246 107.62 27.8369L109.384 27.8369ZM103.102 25.1348H107.628C107.645 24.8352 107.6 24.5354 107.495 24.2541C107.39 23.9729 107.229 23.7164 107.02 23.5006C106.812 23.2849 106.561 23.1145 106.283 23.0003C106.006 22.8861 105.708 22.8305 105.408 22.8369C105.105 22.8351 104.805 22.8933 104.525 23.008C104.245 23.1227 103.99 23.2918 103.776 23.5054C103.562 23.7191 103.392 23.973 103.276 24.2527C103.16 24.5323 103.101 24.8321 103.102 25.1348V25.1348Z" fill="white"/>
<path d="M37.8262 8.73138C38.2158 8.70342 38.6068 8.76228 38.9709 8.90371C39.335 9.04515 39.6632 9.26563 39.9318 9.54925C40.2004 9.83288 40.4026 10.1726 40.524 10.5438C40.6455 10.9151 40.6829 11.3087 40.6338 11.6962C40.6338 13.6025 39.6035 14.6982 37.8262 14.6982H35.6709V8.73138H37.8262ZM36.5977 13.8544H37.7227C38.0011 13.871 38.2797 13.8254 38.5382 13.7208C38.7968 13.6161 39.0287 13.4552 39.2172 13.2496C39.4057 13.0441 39.546 12.7991 39.6279 12.5324C39.7097 12.2658 39.7311 11.9843 39.6904 11.7084C39.7282 11.4335 39.7046 11.1538 39.6215 10.8891C39.5384 10.6244 39.3977 10.3814 39.2097 10.1775C39.0216 9.97358 38.7908 9.81378 38.5337 9.70954C38.2766 9.6053 37.9997 9.55922 37.7227 9.57459H36.5977V13.8544Z" fill="white"/>
<path d="M41.6807 12.4448C41.6524 12.1489 41.6862 11.8503 41.7801 11.5682C41.8739 11.2862 42.0257 11.0268 42.2256 10.8068C42.4256 10.5868 42.6693 10.4111 42.9411 10.2908C43.213 10.1705 43.507 10.1084 43.8042 10.1084C44.1015 10.1084 44.3955 10.1705 44.6673 10.2908C44.9392 10.4111 45.1829 10.5868 45.3828 10.8068C45.5828 11.0268 45.7345 11.2862 45.8284 11.5682C45.9222 11.8503 45.9561 12.1489 45.9278 12.4448C45.9566 12.741 45.9232 13.04 45.8296 13.3225C45.736 13.605 45.5843 13.8648 45.3843 14.0853C45.1843 14.3057 44.9404 14.4818 44.6683 14.6023C44.3962 14.7229 44.1019 14.7851 43.8042 14.7851C43.5066 14.7851 43.2123 14.7229 42.9402 14.6023C42.668 14.4818 42.4241 14.3057 42.2241 14.0853C42.0242 13.8648 41.8725 13.605 41.7789 13.3225C41.6853 13.04 41.6519 12.741 41.6807 12.4448ZM45.0137 12.4448C45.0137 11.4687 44.5752 10.8979 43.8057 10.8979C43.0332 10.8979 42.5987 11.4687 42.5987 12.4448C42.5987 13.4287 43.0333 13.9951 43.8057 13.9951C44.5752 13.9951 45.0137 13.4248 45.0137 12.4448H45.0137Z" fill="white"/>
<path d="M51.5733 14.6982H50.6514L49.7207 11.3818H49.6504L48.7237 14.6982H47.8106L46.5694 10.1953H47.4707L48.2774 13.6313H48.3438L49.2696 10.1953H50.1221L51.0479 13.6313H51.1182L51.9209 10.1953H52.8096L51.5733 14.6982Z" fill="white"/>
<path d="M53.8536 10.1949H54.709V10.9102H54.7754C54.8881 10.6533 55.0781 10.4379 55.319 10.2941C55.5598 10.1503 55.8396 10.0852 56.1192 10.1079C56.3383 10.0915 56.5583 10.1245 56.7629 10.2046C56.9675 10.2847 57.1514 10.4098 57.3011 10.5707C57.4508 10.7315 57.5624 10.924 57.6276 11.1338C57.6928 11.3436 57.7099 11.5654 57.6778 11.7827V14.6977H56.7891V12.0059C56.7891 11.2823 56.4746 10.9224 55.8174 10.9224C55.6687 10.9155 55.5202 10.9408 55.3821 10.9966C55.244 11.0525 55.1197 11.1375 55.0176 11.2459C54.9154 11.3543 54.838 11.4834 54.7904 11.6246C54.7429 11.7657 54.7265 11.9154 54.7422 12.0635V14.6978H53.8535L53.8536 10.1949Z" fill="white"/>
<path d="M59.0938 8.4375H59.9825V14.6982H59.0938V8.4375Z" fill="white"/>
<path d="M61.2178 12.4449C61.1895 12.1489 61.2234 11.8503 61.3172 11.5683C61.4111 11.2862 61.5629 11.0268 61.7628 10.8068C61.9628 10.5869 62.2065 10.4111 62.4784 10.2908C62.7503 10.1705 63.0443 10.1084 63.3416 10.1084C63.6389 10.1084 63.9329 10.1705 64.2047 10.2908C64.4766 10.4111 64.7203 10.5869 64.9203 10.8068C65.1203 11.0268 65.272 11.2862 65.3659 11.5683C65.4598 11.8503 65.4936 12.1489 65.4653 12.4449C65.4942 12.7411 65.4607 13.0401 65.3671 13.3226C65.2734 13.6051 65.1217 13.8649 64.9217 14.0853C64.7217 14.3058 64.4778 14.4819 64.2057 14.6024C63.9335 14.7229 63.6392 14.7852 63.3416 14.7852C63.0439 14.7852 62.7496 14.7229 62.4775 14.6024C62.2053 14.4819 61.9614 14.3058 61.7614 14.0853C61.5614 13.8649 61.4097 13.6051 61.3161 13.3226C61.2225 13.0401 61.189 12.7411 61.2178 12.4449ZM64.5508 12.4449C64.5508 11.4688 64.1123 10.898 63.3428 10.898C62.5703 10.898 62.1358 11.4688 62.1358 12.4449C62.1358 13.4288 62.5704 13.9952 63.3428 13.9952C64.1123 13.9952 64.5508 13.4248 64.5508 12.4449H64.5508Z" fill="white"/>
<path d="M66.4009 13.4248C66.4009 12.6142 67.0044 12.147 68.0757 12.0806L69.2954 12.0102V11.6216C69.2954 11.146 68.981 10.8774 68.3736 10.8774C67.8775 10.8774 67.5337 11.0596 67.4351 11.3779H66.5747C66.6656 10.6045 67.3931 10.1084 68.4146 10.1084C69.5435 10.1084 70.1802 10.6704 70.1802 11.6216V14.6982H69.3247V14.0654H69.2544C69.1117 14.2924 68.9113 14.4775 68.6737 14.6017C68.4361 14.7259 68.1697 14.7848 67.9019 14.7724C67.7129 14.7921 67.5218 14.7719 67.341 14.7132C67.1603 14.6545 66.9938 14.5586 66.8524 14.4316C66.711 14.3047 66.5977 14.1495 66.52 13.9761C66.4422 13.8026 66.4017 13.6149 66.4009 13.4248ZM69.2954 13.04V12.6636L68.1958 12.7339C67.5757 12.7754 67.2945 12.9863 67.2945 13.3833C67.2945 13.7886 67.646 14.0244 68.1295 14.0244C68.2711 14.0387 68.4142 14.0244 68.5502 13.9823C68.6862 13.9403 68.8123 13.8712 68.9211 13.7794C69.0299 13.6876 69.1191 13.5748 69.1834 13.4477C69.2477 13.3207 69.2858 13.1821 69.2954 13.04Z" fill="white"/>
<path d="M71.3482 12.4448C71.3482 11.022 72.0796 10.1206 73.2173 10.1206C73.4987 10.1077 73.778 10.1751 74.0226 10.315C74.2671 10.4548 74.4667 10.6615 74.5982 10.9106H74.6646V8.4375H75.5533V14.6982H74.7017V13.9868H74.6314C74.4898 14.2343 74.2832 14.4383 74.0339 14.5768C73.7847 14.7153 73.5023 14.783 73.2173 14.7724C72.0718 14.7725 71.3482 13.8711 71.3482 12.4448ZM72.2662 12.4448C72.2662 13.3999 72.7164 13.9746 73.4693 13.9746C74.2183 13.9746 74.6812 13.3916 74.6812 12.4487C74.6812 11.5103 74.2134 10.919 73.4693 10.919C72.7212 10.919 72.2661 11.4976 72.2661 12.4448H72.2662Z" fill="white"/>
<path d="M79.23 12.4448C79.2017 12.1489 79.2356 11.8503 79.3294 11.5682C79.4232 11.2862 79.575 11.0268 79.7749 10.8068C79.9749 10.5868 80.2186 10.4111 80.4904 10.2908C80.7623 10.1705 81.0563 10.1084 81.3536 10.1084C81.6508 10.1084 81.9448 10.1705 82.2167 10.2908C82.4885 10.4111 82.7322 10.5868 82.9322 10.8068C83.1321 11.0268 83.2839 11.2862 83.3777 11.5682C83.4715 11.8503 83.5054 12.1489 83.4771 12.4448C83.5059 12.741 83.4725 13.04 83.3789 13.3225C83.2853 13.605 83.1336 13.8648 82.9336 14.0853C82.7336 14.3057 82.4897 14.4818 82.2176 14.6023C81.9455 14.7229 81.6512 14.7851 81.3536 14.7851C81.0559 14.7851 80.7616 14.7229 80.4895 14.6023C80.2173 14.4818 79.9735 14.3057 79.7735 14.0853C79.5735 13.8648 79.4218 13.605 79.3282 13.3225C79.2346 13.04 79.2012 12.741 79.23 12.4448ZM82.563 12.4448C82.563 11.4687 82.1245 10.8979 81.355 10.8979C80.5826 10.8979 80.148 11.4687 80.148 12.4448C80.148 13.4287 80.5826 13.9951 81.355 13.9951C82.1245 13.9951 82.563 13.4248 82.563 12.4448Z" fill="white"/>
<path d="M84.6695 10.1949H85.5249V10.9102H85.5913C85.704 10.6533 85.894 10.4379 86.1349 10.2941C86.3757 10.1503 86.6555 10.0852 86.9351 10.1079C87.1542 10.0915 87.3742 10.1245 87.5788 10.2046C87.7834 10.2847 87.9673 10.4098 88.117 10.5707C88.2667 10.7315 88.3783 10.924 88.4435 11.1338C88.5087 11.3436 88.5258 11.5654 88.4937 11.7827V14.6977H87.605V12.0059C87.605 11.2823 87.2906 10.9224 86.6333 10.9224C86.4846 10.9155 86.3361 10.9408 86.198 10.9966C86.06 11.0525 85.9356 11.1375 85.8335 11.2459C85.7314 11.3543 85.6539 11.4834 85.6064 11.6246C85.5588 11.7657 85.5424 11.9154 85.5581 12.0635V14.6978H84.6695V10.1949Z" fill="white"/>
<path d="M93.5152 9.07422V10.2158H94.4908V10.9644H93.5152V13.2798C93.5152 13.7515 93.7095 13.958 94.1519 13.958C94.2651 13.9576 94.3783 13.9508 94.4908 13.9375V14.6777C94.3312 14.7063 94.1695 14.7215 94.0074 14.7231C93.0191 14.7231 92.6255 14.3755 92.6255 13.5073V10.9643H91.9107V10.2158H92.6255V9.07422H93.5152Z" fill="white"/>
<path d="M95.7046 8.4375H96.5855V10.919H96.6558C96.7739 10.6596 96.9691 10.443 97.2148 10.2987C97.4605 10.1543 97.7448 10.0893 98.0288 10.1123C98.2467 10.1004 98.4646 10.1368 98.6669 10.2189C98.8692 10.3009 99.0509 10.4266 99.199 10.5869C99.3471 10.7473 99.458 10.9383 99.5238 11.1465C99.5896 11.3546 99.6086 11.5747 99.5796 11.791V14.6982H98.69V12.0103C98.69 11.291 98.355 10.9268 97.7271 10.9268C97.5744 10.9142 97.4207 10.9352 97.277 10.9883C97.1332 11.0413 97.0027 11.1252 96.8948 11.2339C96.7868 11.3426 96.7038 11.4737 96.6518 11.6178C96.5997 11.7619 96.5798 11.9157 96.5933 12.0683V14.6982H95.7047L95.7046 8.4375Z" fill="white"/>
<path d="M104.761 13.4825C104.641 13.894 104.379 14.25 104.022 14.4882C103.666 14.7263 103.236 14.8315 102.81 14.7852C102.513 14.7931 102.219 14.7362 101.946 14.6187C101.674 14.5012 101.43 14.3258 101.232 14.1046C101.034 13.8835 100.887 13.6219 100.8 13.3381C100.713 13.0543 100.689 12.755 100.73 12.461C100.691 12.1661 100.715 11.8662 100.801 11.5815C100.888 11.2969 101.034 11.0341 101.231 10.811C101.428 10.5879 101.671 10.4098 101.942 10.2886C102.214 10.1674 102.509 10.1059 102.806 10.1085C104.059 10.1085 104.815 10.9645 104.815 12.3785V12.6886H101.635V12.7384C101.621 12.9036 101.642 13.0699 101.696 13.2267C101.75 13.3834 101.837 13.5271 101.95 13.6486C102.062 13.7701 102.2 13.8666 102.352 13.932C102.504 13.9974 102.669 14.0302 102.835 14.0284C103.047 14.0539 103.262 14.0156 103.453 13.9184C103.644 13.8212 103.802 13.6694 103.906 13.4825L104.761 13.4825ZM101.635 12.0313H103.91C103.921 11.8802 103.9 11.7284 103.849 11.5857C103.798 11.443 103.718 11.3125 103.614 11.2026C103.509 11.0928 103.383 11.006 103.243 10.9478C103.103 10.8896 102.953 10.8614 102.801 10.8648C102.648 10.8629 102.495 10.8918 102.353 10.9497C102.21 11.0076 102.081 11.0935 101.972 11.2022C101.864 11.3109 101.778 11.4403 101.72 11.5827C101.662 11.7251 101.633 11.8776 101.635 12.0313H101.635Z" fill="white"/>
</svg>
