<svg width="50" height="50" viewBox="0 0 50 50" fill="none" xmlns="http://www.w3.org/2000/svg">
<path d="M30.7499 8.8999L27.3 8.89992L19.25 29.5999L20.4 34.1999H25L39.9499 23.8499L36.4999 22.6999L23.3941 29.3429L26.8441 25.8929L30.7499 8.8999Z" fill="white" fill-opacity="0.5"/>
<path fill-rule="evenodd" clip-rule="evenodd" d="M25 0.5C11.469 0.5 0.5 11.469 0.5 25C0.5 38.531 11.469 49.5 25 49.5C38.531 49.5 49.5 38.531 49.5 25C49.5 11.469 38.531 0.5 25 0.5ZM3.5 25C3.5 13.1259 13.1259 3.5 25 3.5C36.8741 3.5 46.5 13.1259 46.5 25C46.5 36.8741 36.8741 46.5 25 46.5C13.1259 46.5 3.5 36.8741 3.5 25Z" fill="white" fill-opacity="0.5"/>
</svg>
