<svg width="16" height="16" viewBox="0 0 16 16" fill="none" xmlns="http://www.w3.org/2000/svg">
<path fill-rule="evenodd" clip-rule="evenodd" d="M9.87926 4.18382C9.61533 4.05331 9.33627 3.94943 9.04548 3.87563L8.42977 2H7.57022L6.95451 3.87563C6.66372 3.94943 6.38467 4.05331 6.12074 4.18382L4.46172 3.14886L3.80327 3.70988L4.51923 5.54936C4.34611 5.79162 4.19691 6.05267 4.07517 6.32892L2.14926 6.61892L2 7.47846L3.71302 8.42034C3.73418 8.72573 3.78628 9.02244 3.86616 9.30727L2.57441 10.7865L3.00418 11.5423L4.91289 11.1457C5.11857 11.3613 5.34595 11.5554 5.59146 11.7244L5.53827 13.7015L6.34597 14L7.55681 12.4507C7.70251 12.4658 7.85036 12.4736 8 12.4736C8.14964 12.4736 8.29749 12.4658 8.44319 12.4507L9.65403 14L10.4617 13.7015L10.4085 11.7244C10.654 11.5554 10.8814 11.3613 11.0871 11.1457L12.9958 11.5423L13.4256 10.7865L12.1338 9.30726C12.2137 9.02243 12.2658 8.72572 12.287 8.42034L14 7.47845L13.8507 6.61891L11.9248 6.3289C11.8031 6.05267 11.6539 5.79164 11.4808 5.54938L12.1967 3.70987L11.5383 3.14885L9.87926 4.18382ZM11.0084 8.1096C11.0084 9.79672 9.66149 11.1644 8 11.1644C6.33851 11.1644 4.99161 9.79672 4.99161 8.1096C4.99161 6.42248 6.33851 5.0548 8 5.0548C9.66149 5.0548 11.0084 6.42248 11.0084 8.1096Z" fill="white" fill-opacity="0.6"/>
</svg>
