<svg width="26" height="26" viewBox="0 0 26 26" fill="none" xmlns="http://www.w3.org/2000/svg">
<path d="M20.9387 14.7492C20.2297 13.8942 19.2236 13.28 17.9118 12.9106C18.8627 12.5413 19.5844 11.9954 20.0726 11.2728C20.5651 10.5502 20.8113 9.7433 20.8113 8.84809C20.8113 7.68393 20.3995 6.66829 19.5717 5.8052C18.7481 4.94211 17.7929 4.40419 16.7146 4.19142C16.3283 4.11515 15.8741 4.05494 15.3519 4.00275V1H13.1019V3.88232C12.7071 3.87429 12.291 3.87028 11.8538 3.87028H11.217V1H8.96698V3.87028H4V6.76865H6.37736C6.66604 6.76865 6.90377 6.98944 6.90377 7.26643V19.7471C6.90377 20.0201 6.67028 20.2449 6.3816 20.2449L4.00425 20.2489V23.1593H8.97123V25.9172H11.2212V23.1593H12.0278C12.4057 23.1593 12.7665 23.1553 13.1061 23.1473V25.9172H15.3561V23.0389C15.683 23.0108 15.9844 22.9747 16.2604 22.9385C17.2962 22.79 18.2472 22.505 19.1175 22.0795C19.9877 21.6539 20.6882 21.0518 21.2104 20.277C21.7368 19.5022 22 18.6351 22 17.6837C21.9958 16.5798 21.6434 15.6043 20.9387 14.7492ZM12.8854 6.76865C15.4028 6.76865 16.6594 7.52737 16.6594 9.04078C16.6594 9.81957 16.3792 10.4097 15.8231 10.8111C15.267 11.2126 14.2863 11.4133 12.8854 11.4133H11.0472V6.76865H12.8854ZM17.1476 19.2052C16.7146 19.6548 16.15 19.9398 15.4623 20.0602C14.7745 20.1807 13.692 20.2409 12.2104 20.2409H11.0769V14.7813H12.7962C13.9892 14.7813 14.9146 14.8536 15.5684 14.9981C16.2222 15.1426 16.7571 15.4317 17.1731 15.8652C17.5892 16.2988 17.7972 16.8367 17.7972 17.475C17.8014 18.1815 17.5849 18.7556 17.1476 19.2052Z" fill="#FFFCCC"/>
</svg>
