<svg width="37" height="33" viewBox="0 0 37 33" fill="none" xmlns="http://www.w3.org/2000/svg">
<path fill-rule="evenodd" clip-rule="evenodd" d="M11.3941 9.22617C12.2401 5.12441 15.9829 2 20.508 2C25.6686 2 29.8021 6.05635 29.8021 10.9994C29.8021 11.6297 29.7353 12.2439 29.6086 12.836L29.3792 13.908L30.4676 14.0382C33.045 14.3467 35 16.4721 35 19C35 21.7343 32.7099 24 29.8235 24V26C33.7595 26 37 22.8931 37 19C37 15.7591 34.7524 13.0616 31.7298 12.2501C31.7776 11.8393 31.8021 11.422 31.8021 10.9994C31.8021 4.89741 26.718 0 20.508 0C15.3547 0 10.9834 3.3675 9.63889 8.00061C4.33214 8.05856 0 12.2627 0 17.5C0 22.7738 4.39275 27 9.75 27V25C5.44227 25 2 21.615 2 17.5C2 13.385 5.44227 10 9.75 10C9.94932 10 10.1467 10.0073 10.3419 10.0215L11.2168 10.0853L11.3941 9.22617ZM15.7071 21.7076L19 18.4147V32.0253H21V18.4137L24.2939 21.7076L25.7081 20.2934L20.7076 15.2929L20.0005 14.5858L19.2934 15.2929L14.2929 20.2934L15.7071 21.7076Z" fill="#FFFCCC"/>
</svg>
