<svg width="16" height="16" viewBox="0 0 16 16" fill="none" xmlns="http://www.w3.org/2000/svg">
<path fill-rule="evenodd" clip-rule="evenodd" d="M1.25 7.4C1.25 4.00345 4.00345 1.25 7.4 1.25C10.7966 1.25 13.55 4.00345 13.55 7.4C13.55 8.82798 13.0633 10.1423 12.2468 11.1861L14.5303 13.4697L13.4697 14.5303L11.1861 12.2468C10.1423 13.0633 8.82798 13.55 7.4 13.55C4.00345 13.55 1.25 10.7966 1.25 7.4ZM7.4 2.75C4.83188 2.75 2.75 4.83188 2.75 7.4C2.75 9.96812 4.83188 12.05 7.4 12.05C9.96812 12.05 12.05 9.96812 12.05 7.4C12.05 4.83188 9.96812 2.75 7.4 2.75Z" fill="white" fill-opacity="0.5"/>
</svg>
