<svg width="16" height="16" viewBox="0 0 16 16" fill="none" xmlns="http://www.w3.org/2000/svg">
<circle cx="8" cy="8" r="7" fill="#00FFF2"/>
<path d="M9.32031 10.4414L9.23438 10.793C8.97656 10.8945 8.77083 10.9714 8.61719 11.0234C8.46354 11.0781 8.28516 11.1055 8.08203 11.1055C7.76953 11.1055 7.52604 11.0299 7.35156 10.8789C7.17969 10.7253 7.09375 10.5312 7.09375 10.2969C7.09375 10.2057 7.10026 10.1133 7.11328 10.0195C7.1263 9.92318 7.14714 9.8151 7.17578 9.69531L7.49609 8.55469C7.52474 8.44531 7.54818 8.34245 7.56641 8.24609C7.58724 8.14714 7.59766 8.05729 7.59766 7.97656C7.59766 7.83073 7.56771 7.72917 7.50781 7.67188C7.44792 7.61458 7.33333 7.58594 7.16406 7.58594C7.08073 7.58594 6.99479 7.59896 6.90625 7.625C6.82031 7.65104 6.74609 7.67578 6.68359 7.69922L6.76953 7.34766C6.98047 7.26172 7.18229 7.1888 7.375 7.12891C7.56771 7.06641 7.75 7.03516 7.92188 7.03516C8.23177 7.03516 8.47005 7.11068 8.63672 7.26172C8.80599 7.41016 8.89062 7.60417 8.89062 7.84375C8.89062 7.89323 8.88411 7.98047 8.87109 8.10547C8.86068 8.23047 8.83984 8.34505 8.80859 8.44922L8.48828 9.58594C8.46224 9.67708 8.4388 9.78125 8.41797 9.89844C8.39714 10.0156 8.38672 10.1042 8.38672 10.1641C8.38672 10.3151 8.42057 10.418 8.48828 10.4727C8.55599 10.5273 8.67318 10.5547 8.83984 10.5547C8.91797 10.5547 9.00651 10.5417 9.10547 10.5156C9.20443 10.487 9.27604 10.4622 9.32031 10.4414ZM9.40234 5.67188C9.40234 5.86979 9.32682 6.03906 9.17578 6.17969C9.02734 6.31771 8.84766 6.38672 8.63672 6.38672C8.42578 6.38672 8.24479 6.31771 8.09375 6.17969C7.94271 6.03906 7.86719 5.86979 7.86719 5.67188C7.86719 5.47396 7.94271 5.30469 8.09375 5.16406C8.24479 5.02344 8.42578 4.95312 8.63672 4.95312C8.84766 4.95312 9.02734 5.02344 9.17578 5.16406C9.32682 5.30469 9.40234 5.47396 9.40234 5.67188Z" fill="#333333"/>
</svg>
