<svg width="24" height="18" viewBox="0 0 24 18" fill="none" xmlns="http://www.w3.org/2000/svg">
<rect x="1" y="1" width="22" height="16" stroke="#FFFCCC" stroke-width="1.3"/>
<path d="M18.0499 5.17371C18.2399 5.18474 18.418 5.25742 18.5481 5.37704C18.6782 5.49666 18.7505 5.65429 18.7505 5.81803C18.7505 5.98177 18.6782 6.1394 18.5481 6.25902C18.418 6.37864 18.2399 6.45132 18.0499 6.46235H15.663C15.4754 6.47134 15.2989 6.54175 15.1697 6.65912C15.0406 6.77649 14.9686 6.93191 14.9686 7.09347C14.9686 7.25502 15.0406 7.41045 15.1697 7.52782C15.2989 7.64519 15.4754 7.7156 15.663 7.72458H17.0153C17.3084 7.72471 17.5987 7.77451 17.8694 7.87113C18.1402 7.96775 18.3861 8.1093 18.5932 8.28768C18.8003 8.46606 18.9645 8.67778 19.0763 8.91074C19.1881 9.14369 19.2455 9.39331 19.245 9.64533C19.2439 10.143 19.0185 10.621 18.6161 10.9788C18.2136 11.3366 17.6655 11.5464 17.087 11.5641V12.1532C17.0764 12.318 16.9928 12.4732 16.8532 12.5867C16.7137 12.7002 16.529 12.7634 16.3369 12.7634C16.1448 12.7634 15.96 12.7002 15.8205 12.5867C15.681 12.4732 15.5974 12.318 15.5868 12.1532V11.5661H14.5851C14.3934 11.557 14.2129 11.4851 14.0809 11.3652C13.9488 11.2452 13.8753 11.0864 13.8753 10.9213C13.8753 10.7561 13.9488 10.5973 14.0809 10.4774C14.2129 10.3574 14.3934 10.2855 14.5851 10.2764H17.0153C17.2029 10.2675 17.3794 10.197 17.5086 10.0797C17.6377 9.96231 17.7097 9.80688 17.7097 9.64533C17.7097 9.48377 17.6377 9.32835 17.5086 9.21098C17.3794 9.09361 17.2029 9.0232 17.0153 9.01421H15.663C15.0707 9.01343 14.503 8.81082 14.0841 8.45078C13.6653 8.09074 13.4296 7.60264 13.4287 7.09347C13.4287 6.05629 14.3939 5.20697 15.5913 5.17468V4.60228C15.6042 4.43891 15.6887 4.28583 15.8279 4.17401C15.967 4.0622 16.1504 4 16.3409 4C16.5313 4 16.7147 4.0622 16.8538 4.17401C16.993 4.28583 17.0775 4.43891 17.0904 4.60228V5.17371H18.0499Z" fill="#FFFCCC"/>
</svg>
