<svg width="20" height="20" viewBox="0 0 20 20" fill="none" xmlns="http://www.w3.org/2000/svg">
<circle cx="10" cy="10" r="9" fill="#ED145B" stroke="#1C1F26" stroke-width="2"/>
<path d="M10.7665 10.0589C10.7588 10.0512 10.7526 10.042 10.7484 10.0319C10.7442 10.0218 10.742 10.0109 10.742 9.99995C10.742 9.98899 10.7442 9.97814 10.7484 9.96801C10.7526 9.95789 10.7588 9.94869 10.7665 9.94095L13.8541 6.85374C13.9478 6.75986 14.0004 6.63258 14.0003 6.4999C14.0002 6.36723 13.9474 6.24002 13.8536 6.14627C13.7597 6.05252 13.6324 5.99991 13.4997 6C13.367 6.00009 13.2398 6.05289 13.1461 6.14677L10.0589 9.23265C10.0511 9.24041 10.0419 9.24657 10.0318 9.25077C10.0217 9.25497 10.0108 9.25713 9.99988 9.25713C9.98892 9.25713 9.97807 9.25497 9.96794 9.25077C9.95782 9.24657 9.94863 9.24041 9.94088 9.23265L6.85367 6.14677C6.80725 6.10033 6.75214 6.06349 6.69148 6.03834C6.63082 6.0132 6.5658 6.00025 6.50014 6.00024C6.36753 6.0002 6.24033 6.05286 6.14654 6.14661C6.05274 6.24036 6.00003 6.36753 6 6.50014C5.99997 6.63275 6.05262 6.75995 6.14637 6.85374L9.23325 9.94095C9.24101 9.94869 9.24716 9.95789 9.25136 9.96801C9.25557 9.97814 9.25773 9.98899 9.25773 9.99995C9.25773 10.0109 9.25557 10.0218 9.25136 10.0319C9.24716 10.042 9.24101 10.0512 9.23325 10.0589L6.14637 13.1465C6.09995 13.1929 6.06313 13.2481 6.03802 13.3087C6.0129 13.3694 5.99998 13.4344 6 13.5001C6.00003 13.6327 6.05274 13.7599 6.14654 13.8536C6.19298 13.9001 6.24811 13.9369 6.30878 13.962C6.36945 13.9871 6.43448 14 6.50014 14C6.63275 14 6.75992 13.9473 6.85367 13.8535L9.94088 10.7659C9.94863 10.7582 9.95782 10.752 9.96794 10.7478C9.97807 10.7436 9.98892 10.7414 9.99988 10.7414C10.0108 10.7414 10.0217 10.7436 10.0318 10.7478C10.0419 10.752 10.0511 10.7582 10.0589 10.7659L13.1461 13.8535C13.2398 13.9473 13.367 14 13.4996 14C13.6322 14 13.7594 13.9474 13.8532 13.8536C13.947 13.7599 13.9997 13.6327 13.9998 13.5001C13.9998 13.3675 13.9471 13.2403 13.8534 13.1465L10.7665 10.0589Z" fill="white"/>
</svg>
