<svg width="26" height="26" viewBox="0 0 26 26" fill="none" xmlns="http://www.w3.org/2000/svg">
<path fill-rule="evenodd" clip-rule="evenodd" d="M19.2611 6.73939C19.2611 10.1972 16.458 13.0003 13.0002 13.0003C9.54241 13.0003 6.73932 10.1972 6.73932 6.73939C6.73932 3.2816 9.54241 0.478516 13.0002 0.478516C16.458 0.478516 19.2611 3.2816 19.2611 6.73939ZM4.99368 17.6464C7.26615 15.9805 10.0913 15.0775 13.0003 15.0872C15.9092 15.0775 18.7344 15.9805 21.0068 17.6464C23.2793 19.3123 24.8625 21.6409 25.4936 24.2458C25.5315 24.3986 25.5315 24.5573 25.4934 24.7101C25.4554 24.8629 25.3803 25.0059 25.2738 25.1285C25.1673 25.2511 25.0321 25.3501 24.8782 25.4182C24.7243 25.4863 24.5556 25.5218 24.3847 25.5219H1.61577C1.44489 25.5218 1.27625 25.4863 1.12234 25.4182C0.968434 25.3501 0.833213 25.2511 0.726706 25.1285C0.6202 25.0059 0.545141 24.8629 0.507094 24.7101C0.469047 24.5573 0.468989 24.3986 0.506924 24.2458C1.13805 21.6409 2.72121 19.3123 4.99368 17.6464Z" fill="#C4C4C4" fill-opacity="0.5"/>
</svg>
