<svg width="31" height="20" viewBox="0 0 31 20" fill="none" xmlns="http://www.w3.org/2000/svg">
<path d="M19.1098 3.48511H11.1328V16.5139H19.1098V3.48511Z" fill="#FF5F00"/>
<path d="M11.9563 9.99933C11.9553 8.74477 12.2397 7.50643 12.7879 6.37801C13.3362 5.2496 14.1339 4.26068 15.1208 3.48609C13.8985 2.5255 12.4306 1.92816 10.8849 1.76235C9.33918 1.59655 7.77799 1.86895 6.37977 2.54845C4.98154 3.22794 3.80268 4.2871 2.97794 5.60488C2.15319 6.92266 1.71582 8.44589 1.71582 10.0005C1.71582 11.5551 2.15319 13.0783 2.97794 14.3961C3.80268 15.7139 4.98154 16.773 6.37977 17.4525C7.77799 18.132 9.33918 18.4044 10.8849 18.2386C12.4306 18.0728 13.8985 17.4755 15.1208 16.5149C14.1336 15.74 13.3357 14.7507 12.7874 13.6219C12.2392 12.4931 11.9549 11.2543 11.9563 9.99933Z" fill="#EB001B"/>
<path d="M27.735 15.1354V14.8685H27.8501V14.8132H27.5762V14.8685H27.6843V15.1354H27.735ZM28.2666 15.1354V14.8132H28.1838L28.0871 15.0434L27.9904 14.8132H27.9076V15.1354H27.9674V14.8915L28.0572 15.1009H28.1193L28.2091 14.8915V15.1354H28.2666Z" fill="#F79E1B"/>
<path d="M28.5244 10.0006C28.5243 11.5553 28.0869 13.0787 27.262 14.3965C26.4371 15.7143 25.2581 16.7735 23.8596 17.4528C22.4612 18.1322 20.8999 18.4045 19.3541 18.2384C17.8083 18.0724 16.3404 17.4748 15.1182 16.5139C16.1047 15.7386 16.9022 14.7494 17.4506 13.6209C17.999 12.4924 18.2839 11.2542 18.2839 9.99948C18.2839 8.74481 17.999 7.50652 17.4506 6.37804C16.9022 5.24956 16.1047 4.26037 15.1182 3.4851C16.3404 2.5242 17.8083 1.92658 19.3541 1.76053C20.8999 1.59448 22.4612 1.86672 23.8596 2.54611C25.2581 3.22551 26.4371 4.28465 27.262 5.60247C28.0869 6.9203 28.5243 8.44362 28.5244 9.99833V10.0006Z" fill="#F79E1B"/>
</svg>
