<svg width="20" height="20" viewBox="0 0 20 20" fill="none" xmlns="http://www.w3.org/2000/svg">
<circle cx="10" cy="10" r="9" fill="#00FFDD" stroke="#1C1F26" stroke-width="2"/>
<path d="M14.8235 6.17647C14.5882 5.94118 14.2353 5.94118 14 6.17647L7.94118 12.2353L6 10.2941C5.76471 10.0588 5.41176 10.0588 5.17647 10.2941C4.94118 10.5294 4.94118 10.8824 5.17647 11.1176L7.52941 13.4706C7.64706 13.5882 7.82353 13.6471 7.94118 13.6471C8.05882 13.6471 8.23529 13.5882 8.35294 13.4706L14.8235 7C15.0588 6.76471 15.0588 6.41176 14.8235 6.17647Z" fill="#252636"/>
<path d="M14.8235 6.17647C14.5882 5.94118 14.2353 5.94118 14 6.17647L7.94118 12.2353L6 10.2941C5.76471 10.0588 5.41176 10.0588 5.17647 10.2941C4.94118 10.5294 4.94118 10.8824 5.17647 11.1176L7.52941 13.4706C7.64706 13.5882 7.82353 13.6471 7.94118 13.6471C8.05882 13.6471 8.23529 13.5882 8.35294 13.4706L14.8235 7C15.0588 6.76471 15.0588 6.41176 14.8235 6.17647Z" fill="url(#paint0_radial_14893_9834)"/>
<defs>
<radialGradient id="paint0_radial_14893_9834" cx="0" cy="0" r="1" gradientUnits="userSpaceOnUse" gradientTransform="translate(5 6) rotate(90) scale(7.64706 9.21066)">
<stop stop-color="#FFFCCC" stop-opacity="0.08"/>
<stop offset="1" stop-color="#FFFCCC" stop-opacity="0"/>
</radialGradient>
</defs>
</svg>
