<svg width="32" height="33" viewBox="0 0 32 33" fill="none" xmlns="http://www.w3.org/2000/svg">
<path d="M3.90045 19.022C4.84707 19.0304 5.88572 19.1835 6.32332 20.087C6.75448 21.0864 6.49257 22.2943 5.40115 22.7564C6.7931 23.0801 7.24163 24.7397 6.66117 25.9007C6.1663 26.855 5.03627 27.198 4.01499 27.2006H0.0515137V19.0214H3.90045V19.022ZM3.67135 22.3323C3.99183 22.3323 4.25567 22.2564 4.4616 22.1032C4.88311 21.8136 4.89341 20.8657 4.39274 20.6025C3.8747 20.282 2.44028 20.4648 1.84953 20.4191V22.3323H3.67135ZM3.77431 25.8035C4.44358 25.8324 5.15082 25.4991 5.1032 24.7269C5.1032 24.3073 4.98479 24.0074 4.74797 23.8279C4.51115 23.6483 4.1984 23.5589 3.80842 23.5589H1.85017V25.8041H3.77431V25.8035Z" fill="#494949"/>
<path d="M12.1936 19.022L15.2523 27.2012H13.3854L12.767 25.38H9.70827L9.06668 27.2012H7.25708L10.3499 19.022H12.1936V19.022ZM12.2972 24.0389L11.2663 21.0375H11.2431L10.178 24.0389H12.2972Z" fill="#494949"/>
<path d="M17.7497 19.022L21.1636 24.5087H21.1868V19.022H22.8709V27.2012H21.0722L17.6699 21.7254H17.6468V27.2012H15.9626V19.022H17.7497V19.022Z" fill="#494949"/>
<path d="M26.2493 19.022V22.4127L29.4451 19.022H31.6904L28.4946 22.2525L31.9999 27.2012H29.743L27.2803 23.5241L26.2493 24.5666V27.2012H24.4507V19.022H26.2493V19.022Z" fill="#494949"/>
<path d="M0 29.3918V28.6067H3.47955V29.3918H2.20665V32.854H1.2729V29.3918H0Z" fill="#494949"/>
<path d="M6.2576 28.6067C6.92622 28.5829 7.51891 29.1022 7.50089 29.7785C7.49703 30.2753 7.30847 30.6557 6.82905 30.8436V30.8552C7.72484 31.1158 7.26471 32.2368 7.62638 32.854H6.69262C6.57807 32.5695 6.59738 32.1461 6.54396 31.8365C6.47253 31.388 6.30843 31.1956 5.83609 31.1943H4.90233V32.854H3.96729V28.6067H6.2576ZM5.92425 30.5283C6.13854 30.5283 6.29878 30.4806 6.40625 30.3854C6.61668 30.2252 6.62441 29.635 6.40625 29.4722C6.17522 29.2348 5.21701 29.3628 4.90104 29.3326V30.5283H5.92425V30.5283Z" fill="#494949"/>
<path d="M10.3795 28.6067L11.9677 32.854H10.9979L10.6768 31.908H9.08857L8.75522 32.854H7.81567L9.42192 28.6067H10.3795ZM10.4335 31.2123L9.89813 29.6537H9.8859L9.33247 31.2123H10.4335Z" fill="#494949"/>
<path d="M13.265 28.6067L15.0372 31.4562H15.0495V28.6067H15.924V32.854H14.9903L13.2238 30.0109H13.2122V32.854H12.3376V28.6067H13.265Z" fill="#494949"/>
<path d="M17.4582 31.8069C17.7343 32.3263 18.6764 32.3771 19.0645 31.9646C19.2762 31.6814 19.069 31.3359 18.7492 31.2419C18.3367 31.0849 17.8418 31.0193 17.4228 30.8519C16.2034 30.4382 16.4531 28.8474 17.6371 28.5829C18.5812 28.3177 19.9513 28.6968 19.9094 29.8738H19.0053C19.031 29.1839 17.9357 29.016 17.5837 29.487C17.4685 29.6865 17.5065 29.969 17.7594 30.0578C18.1584 30.2264 18.6282 30.2959 19.1218 30.4414C20.4101 30.7876 20.3329 32.5174 19.0503 32.8475C18.0297 33.1706 16.408 32.7774 16.4775 31.444H17.3817C17.381 31.5869 17.4068 31.7078 17.4582 31.8069Z" fill="#494949"/>
<path d="M23.5909 28.6067V29.3918H21.5387V30.3732H23.3174V31.0991H21.5387V32.854H20.605V28.6067H23.5909V28.6067Z" fill="#494949"/>
<path d="M27.3088 28.6067V29.3918H25.0661V30.3017H27.1241V31.0276H25.0661V32.0689H27.3564V32.854H24.1323V28.6067H27.3088V28.6067Z" fill="#494949"/>
<path d="M30.2767 28.6067C30.9454 28.5829 31.538 29.1022 31.52 29.7785C31.5162 30.2753 31.3276 30.6557 30.8475 30.8436V30.8552C31.7433 31.1158 31.2832 32.2368 31.6442 32.854H30.7105C30.5959 32.5695 30.6152 32.1461 30.5618 31.8365C30.4904 31.388 30.3263 31.1956 29.8539 31.1943H28.9202V32.854H27.9871V28.6067H30.2767ZM29.944 30.5283C30.1583 30.5283 30.3186 30.4806 30.426 30.3854C30.6365 30.2252 30.6442 29.635 30.426 29.4722C30.195 29.2348 29.2368 29.3628 28.9215 29.3326V30.5283H29.944V30.5283Z" fill="#494949"/>
<path d="M16.372 2.58505C16.372 2.58505 8.11296 4.1604 8.67219 12.4452C8.67219 12.4452 9.104 6.01569 16.372 5.32969C16.372 5.32969 15.6364 6.28211 15.6532 8.48425C15.6532 8.48425 20.19 5.93524 20.19 3.76592C20.19 1.86108 15.8385 0 15.8385 0C15.8385 0 15.8327 1.58114 16.372 2.58505Z" fill="#494949"/>
<path d="M14.5038 15.2362C14.5038 15.2362 22.7629 13.6608 22.2036 5.37604C22.2036 5.37604 21.7718 11.8055 14.5038 12.4915C14.5038 12.4915 15.2394 11.5391 15.2227 9.33694C15.2227 9.33694 10.6858 11.886 10.6858 14.0553C10.6858 15.9601 15.0373 17.8212 15.0373 17.8212C15.0373 17.8212 15.0425 16.2407 14.5038 15.2362Z" fill="#494949"/>
</svg>
