<svg width="16" height="16" viewBox="0 0 16 16" fill="none" xmlns="http://www.w3.org/2000/svg">
<path fill-rule="evenodd" clip-rule="evenodd" d="M3 1H1V6H3V14H13V6H15V1H13H3ZM3 2H2V5H3V2ZM13 5H14V2H13V5ZM4 2H12V13H4V2ZM9.88267 4.88314C9.78597 4.7797 9.6536 4.71685 9.51232 4.70731H8.79901V4.21315C8.78947 4.07188 8.72662 3.9395 8.62318 3.8428C8.51973 3.74611 8.38342 3.69232 8.24182 3.69232C8.10022 3.69232 7.96391 3.74611 7.86046 3.8428C7.75702 3.9395 7.69417 4.07188 7.68463 4.21315V4.70815C6.79447 4.73608 6.07693 5.47054 6.07693 6.36746C6.07761 6.80778 6.25282 7.22987 6.56417 7.54122C6.87552 7.85258 7.29762 8.02779 7.73793 8.02846H8.74317C8.88266 8.03623 9.01388 8.09712 9.10988 8.19862C9.20588 8.30012 9.25938 8.43452 9.25938 8.57423C9.25938 8.71394 9.20588 8.84834 9.10988 8.94984C9.01388 9.05134 8.88266 9.11223 8.74317 9.12H6.93663C6.79405 9.12786 6.6599 9.19003 6.56175 9.29374C6.46359 9.39745 6.4089 9.53482 6.4089 9.67761C6.4089 9.82041 6.46359 9.95778 6.56175 10.0615C6.6599 10.1652 6.79405 10.2274 6.93663 10.2352H7.68124V10.7429C7.6891 10.8855 7.75127 11.0196 7.85498 11.1178C7.9587 11.216 8.09606 11.2707 8.23886 11.2707C8.38165 11.2707 8.51902 11.216 8.62273 11.1178C8.72644 11.0196 8.78862 10.8855 8.79647 10.7429V10.2335C9.22659 10.2182 9.63404 10.0368 9.9332 9.72737C10.2324 9.41795 10.4 9.00462 10.4008 8.57423C10.4011 8.3563 10.3585 8.14043 10.2753 7.93898C10.1922 7.73753 10.0702 7.55444 9.91623 7.40018C9.76228 7.24592 9.57944 7.12351 9.37816 7.03996C9.17688 6.9564 8.9611 6.91334 8.74317 6.91323H7.73793C7.59844 6.90546 7.46722 6.84457 7.37122 6.74307C7.27522 6.64157 7.22172 6.50717 7.22172 6.36746C7.22172 6.22775 7.27522 6.09335 7.37122 5.99185C7.46722 5.89035 7.59844 5.82946 7.73793 5.82169H9.51232C9.6536 5.81215 9.78597 5.7493 9.88267 5.64585C9.97936 5.54241 10.0332 5.4061 10.0332 5.2645C10.0332 5.1229 9.97936 4.98659 9.88267 4.88314Z" fill="white" fill-opacity="0.6"/>
</svg>
