<svg width="24" height="17" viewBox="0 0 24 17" fill="none" xmlns="http://www.w3.org/2000/svg">
<path d="M13 5.00001L14.5 5L12.8018 12.3883L12 14.5L10.5 16H10L9.5 14L13 5.00001Z" fill="#FFFCCC"/>
<path fill-rule="evenodd" clip-rule="evenodd" d="M11.9996 1.64998C9.50294 1.64998 7.21274 2.53399 5.42495 4.00608L6.95923 5.54036L6.03999 6.45959L4.47442 4.89402C2.72324 6.74786 1.64961 9.24854 1.64961 12C1.64961 13.1734 1.84462 14.3 2.20359 15.35H3.99961V16.65H1.74949H1.30553L1.14402 16.2364C0.630917 14.9226 0.349609 13.4933 0.349609 12C0.349609 5.56586 5.56549 0.349976 11.9996 0.349976C18.4337 0.349976 23.6496 5.56586 23.6496 12C23.6496 13.4933 23.3683 14.9226 22.8552 16.2364L22.6937 16.65H22.2497H19.9996V15.35H21.7956C22.1546 14.3 22.3496 13.1734 22.3496 12C22.3496 9.12136 21.1744 6.51723 19.2777 4.64115L17.4592 6.45959L16.54 5.54036L18.2957 3.78461C16.5514 2.44577 14.3684 1.64998 11.9996 1.64998Z" fill="#FFFCCC"/>
</svg>
