<svg width="16" height="16" viewBox="0 0 16 16" fill="none" xmlns="http://www.w3.org/2000/svg">
<g clip-path="url(#clip0)">
<path d="M8.22616 10.287C8.40605 9.97544 8.44809 9.67367 8.35227 9.3817C8.25646 9.08974 8.00496 8.72104 7.59778 8.27561C7.1906 7.83017 6.8227 7.40478 6.49406 6.99944C6.16543 6.59409 5.91006 6.19686 5.72797 5.80776C5.54587 5.41865 5.45432 5.03712 5.45329 4.66316C5.45227 4.2892 5.56675 3.90304 5.79674 3.50469C6.18157 2.83814 6.78789 2.45724 7.61571 2.36197C8.4458 2.26276 9.36435 2.45653 10.3714 2.94326L11.0921 1.69497L12.3047 2.39507L11.5703 3.66703C12.4392 4.3107 12.9969 5.02971 13.2433 5.82406C13.4971 6.6174 13.4076 7.38875 12.975 8.13812L10.3973 6.64986C10.6341 6.23968 10.7146 5.86545 10.6387 5.52716C10.5629 5.18888 10.3368 4.91113 9.96057 4.69391C9.625 4.50017 9.31534 4.43182 9.03158 4.48886C8.75519 4.54489 8.53388 4.71686 8.36765 5.00478C8.19914 5.29664 8.17156 5.59099 8.28491 5.88781C8.40054 6.18069 8.64923 6.54251 9.03098 6.97327C9.41501 7.40008 9.76653 7.81864 10.0855 8.22894C10.4119 8.63823 10.6661 9.03743 10.8482 9.42653C11.0303 9.81564 11.1258 10.2021 11.1347 10.5859C11.1436 10.9696 11.0331 11.3607 10.8031 11.759C10.4137 12.4335 9.81897 12.8237 9.01886 12.9297C8.22382 13.0386 7.33043 12.8541 6.33868 12.3762L5.65213 13.5653L4.43953 12.8652L5.12949 11.6702C4.07349 10.9395 3.39151 10.154 3.08356 9.31364C2.78298 8.47223 2.86837 7.64332 3.33973 6.8269L5.90984 8.31075C5.65025 8.76038 5.57925 9.1769 5.69684 9.56031C5.82179 9.94272 6.12068 10.2704 6.59352 10.5434C6.93925 10.743 7.25681 10.8212 7.54618 10.7779C7.83783 10.7307 8.06449 10.5671 8.22616 10.287Z" fill="white"/>
</g>
<defs>
<clipPath id="clip0">
<path d="M0 0H16V16H0V0Z" fill="white"/>
</clipPath>
</defs>
</svg>
