<svg width="16" height="16" viewBox="0 0 16 16" fill="none" xmlns="http://www.w3.org/2000/svg">
<path fill-rule="evenodd" clip-rule="evenodd" d="M10.2597 3.9466C10.0232 4.09415 9.73099 4.1041 9.4695 4.00749C9.21122 3.91207 8.99345 3.71727 8.90757 3.45566L8.56381 2.40845C8.48383 2.16482 8.25642 2.00012 8 2.00012C7.74357 2.00012 7.51616 2.16482 7.43618 2.40845L7.09241 3.45566C7.00654 3.71727 6.78877 3.91207 6.53049 4.00749C6.26901 4.10409 5.97679 4.09414 5.74028 3.9466L4.83394 3.38119C4.6123 3.24292 4.32663 3.26408 4.12779 3.43351C3.9335 3.59905 3.86533 3.86945 3.95791 4.10731L4.35766 5.13435C4.45847 5.39337 4.41774 5.68178 4.27987 5.92313C4.13987 6.16818 3.90603 6.35451 3.62695 6.39653L2.58274 6.55377C2.32389 6.59275 2.11904 6.79303 2.07426 7.05094C2.02983 7.30678 2.1528 7.56259 2.38034 7.6877L3.31619 8.20227C3.56353 8.33827 3.71956 8.59556 3.76792 8.87365C3.81589 9.14953 3.75517 9.43449 3.57098 9.6454L2.85678 10.4632C2.68768 10.6569 2.65952 10.9363 2.78659 11.1598C2.91628 11.3879 3.17829 11.5063 3.43519 11.4529L4.47062 11.2377C4.74569 11.1806 5.02711 11.2738 5.24106 11.4559C5.45084 11.6344 5.58699 11.8907 5.57958 12.1661L5.54974 13.2752C5.54288 13.5301 5.69917 13.7611 5.93834 13.8495C6.18117 13.9392 6.45416 13.8617 6.61357 13.6577L7.28342 12.8006C7.45352 12.583 7.72376 12.4737 8 12.4737C8.27624 12.4737 8.54648 12.583 8.71659 12.8006L9.38643 13.6577C9.54584 13.8617 9.81883 13.9392 10.0617 13.8495C10.3008 13.7611 10.4571 13.5301 10.4503 13.2752L10.4204 12.166C10.413 11.8907 10.5492 11.6344 10.7589 11.4559C10.9729 11.2738 11.2543 11.1806 11.5294 11.2377L12.5648 11.4529C12.8217 11.5063 13.0837 11.3879 13.2134 11.1598C13.3405 10.9363 13.3123 10.6569 13.1432 10.4632L12.429 9.6454C12.2448 9.43448 12.1841 9.14953 12.2321 8.87365C12.2804 8.59555 12.4365 8.33826 12.6838 8.20227L13.6197 7.68769C13.8472 7.56258 13.9702 7.30677 13.9257 7.05093C13.881 6.79302 13.6761 6.59273 13.4173 6.55376L12.373 6.39652C12.0939 6.35449 11.8601 6.16818 11.7201 5.92313C11.5823 5.6818 11.5415 5.39341 11.6423 5.1344L12.0421 4.1073C12.1347 3.86943 12.0665 3.59903 11.8722 3.4335C11.6734 3.26407 11.3877 3.24291 11.1661 3.38118L10.2597 3.9466ZM11.0084 8.10972C11.0084 9.79684 9.66149 11.1645 8 11.1645C6.33851 11.1645 4.99161 9.79684 4.99161 8.10972C4.99161 6.4226 6.33851 5.05492 8 5.05492C9.66149 5.05492 11.0084 6.4226 11.0084 8.10972Z" fill="white" fill-opacity="0.6"/>
</svg>
