<svg width="24" height="24" viewBox="0 0 24 24" fill="none" xmlns="http://www.w3.org/2000/svg">
<path fill-rule="evenodd" clip-rule="evenodd" d="M11.3333 2.66675H12.6667V5.33341H14V14.0001H10V5.33341H11.3333V2.66675ZM12.6667 15.3334H11.3333V18.6667H12.6667V15.3334ZM3.33333 4.66675H4.66667V7.33341H3.33333V4.66675ZM4.66667 10.0001H3.33333V16.0001H4.66667V10.0001ZM2 8.66675V17.3334H3.33333V20.6667H4.66667V17.3334H6V8.66675H2ZM20.6667 4.66675H19.3333V7.33341H20.6667V4.66675ZM19.3333 10.0001H20.6667V16.0001H19.3333V10.0001ZM18 17.3334V8.66675H22V17.3334H20.6667V20.6667H19.3333V17.3334H18Z" fill="white" fill-opacity="0.6"/>
</svg>
