<svg width="24" height="24" viewBox="0 0 24 24" fill="none" xmlns="http://www.w3.org/2000/svg">
<mask id="mask0" mask-type="alpha" maskUnits="userSpaceOnUse" x="4" y="4" width="16" height="16">
<path fill-rule="evenodd" clip-rule="evenodd" d="M12 20C16.4183 20 20 16.4183 20 12C20 7.58172 16.4183 4 12 4C7.58172 4 4 7.58172 4 12C4 16.4183 7.58172 20 12 20Z" fill="white"/>
</mask>
<g mask="url(#mask0)">
<path d="M4 4H20V20H4V4Z" fill="#4758A9"/>
<path d="M4 4V7.11111L7.55556 10.2222H4V13.7778H6.66667L4 16V20H4.44444L10.2222 14.6667V20H13.7778V15.1111L19.1111 20H20V16.8889L16.4444 13.7778H20V10.2222H17.3333L20 8V4H19.5556L13.7778 9.33333V4H10.2222V8.88889L4.88889 4H4Z" fill="white"/>
<path fill-rule="evenodd" clip-rule="evenodd" d="M11.1111 4V11.1111H4V12.8889H11.1111V20H12.8889V12.8889H20V11.1111H12.8889V4H11.1111ZM20 4.53333L13.7778 10.2222H15.5556L20 6.22222V4.53333ZM4 6.48889V4.71112L10.2222 10.2222H8.44444L4 6.48889ZM8.44444 13.7778L4 17.6V19.3778L10.2222 13.7778H8.44444ZM20 19.1111L13.7778 13.7778H15.5556L20 17.5111V19.1111Z" fill="#ED5565"/>
</g>
</svg>
