<svg width="74" height="16" viewBox="0 0 74 16" fill="none" xmlns="http://www.w3.org/2000/svg">
<path d="M40.534 5.90771C39.8975 5.14682 39.0327 4.76994 37.9327 4.76994C36.7842 4.76994 35.7741 5.23927 34.9093 6.18505V5.03305L34.8955 5.04016L31.4362 7.29438V15.2802H34.9093V8.86594C35.3383 8.26149 35.8986 7.95571 36.5767 7.95571C37.0056 7.95571 37.3515 8.09083 37.6144 8.36816C37.8773 8.64549 38.0088 9.07216 38.0088 9.64816V15.273H41.4818V8.98682C41.4818 7.6926 41.1636 6.6686 40.534 5.90771Z" fill="#21B3A4"/>
<path d="M15.9528 5.8366C15.3024 5.12549 14.4445 4.76994 13.3722 4.76994C12.7149 4.76994 12.0923 4.92638 11.4973 5.24638C10.9023 5.55927 10.4387 5.97171 10.1136 6.46949C9.86451 6.00016 9.49784 5.60194 9.00663 5.26771C8.51542 4.9406 7.96886 4.77705 7.36695 4.77705C6.04553 4.77705 5.02852 5.26771 4.309 6.24905V5.04727L0.835938 7.31571V15.2802H4.309V8.88727C4.68951 8.25438 5.21532 7.94149 5.90024 7.94149C6.73738 7.94149 7.1594 8.49616 7.1594 9.59838V15.2873H10.6325V8.89438C10.9853 8.26149 11.5111 7.9486 12.203 7.9486C13.0401 7.9486 13.4621 8.50327 13.4621 9.60549V15.2944H16.9352V8.90149C16.9283 7.5646 16.6031 6.54771 15.9528 5.8366Z" fill="#21B3A4"/>
<path d="M28.15 14.0073C27.1053 15.0313 25.7631 15.5433 24.1304 15.5433C22.4976 15.5433 21.1554 15.0313 20.1107 14.0073C19.0522 12.9833 18.5195 11.7033 18.5195 10.153C18.5195 8.61705 19.0522 7.34416 20.1107 6.32016C21.1831 5.28194 22.5253 4.76994 24.1304 4.76994C25.7424 4.76994 27.0776 5.28905 28.15 6.32016C29.2085 7.34416 29.7412 8.61705 29.7412 10.153C29.7412 11.7033 29.2085 12.9833 28.15 14.0073ZM26.3235 10.153C26.3235 9.49171 26.116 8.93705 25.6939 8.48905C25.2719 8.04105 24.753 7.81349 24.1234 7.81349C23.4939 7.81349 22.975 8.04105 22.553 8.48905C22.1309 8.93705 21.9234 9.49171 21.9234 10.153C21.9234 10.8286 22.1309 11.3833 22.5391 11.8242C22.9542 12.265 23.48 12.4926 24.1165 12.4926C24.7599 12.4926 25.2857 12.2722 25.6939 11.8242C26.1021 11.3762 26.3235 10.8286 26.3235 10.153Z" fill="#21B3A4"/>
<path d="M57.1245 15.5362C55.5816 15.5362 54.2671 15.0526 53.1809 14.0855C52.1086 13.1042 51.5689 11.7957 51.5689 10.153C51.5689 8.63127 52.0532 7.35838 53.0218 6.32016C53.9904 5.28194 55.2634 4.76994 56.8477 4.76994C58.2729 4.76994 59.4214 5.27482 60.3 6.2846C61.1994 7.26594 61.656 8.55305 61.656 10.1388V11.0277H54.9867C55.7615 13.417 59.3591 13.5166 61.0887 12.0162V14.4766C60.134 15.1806 58.8126 15.5362 57.1245 15.5362ZM54.9659 9.12194H58.2591C58.2452 8.60994 58.0861 8.19749 57.7886 7.87038C57.4842 7.55038 57.1245 7.38682 56.6886 7.38682C56.232 7.38682 55.8445 7.54327 55.5332 7.84905C55.2219 8.16194 55.0282 8.5886 54.9659 9.12194Z" fill="#21B3A4"/>
<path d="M65.4889 15.273H61.7183L65.309 9.98949L61.9743 5.02594H65.7587L67.3845 7.5646L69.0104 5.02594H72.7809L69.4462 9.96816L73.0161 15.273H69.1902L67.343 12.4499L65.4889 15.273Z" fill="#21B3A4"/>
<path d="M48.0059 7.89171V15.273H44.5329V7.89171H42.8655V5.03305H44.5329V4.48549C44.5329 3.39749 44.8442 2.52282 45.4738 1.86149C46.1034 1.20016 47.0028 0.873047 48.1789 0.873047C49.2236 0.873047 50.1368 1.02238 50.9048 1.31394V3.75305C50.9048 3.75305 49.7978 3.75305 49.1959 3.75305C48.4003 3.75305 47.999 4.11571 47.999 4.84105V5.02594H50.9048V7.89171H48.0059Z" fill="#21B3A4"/>
</svg>
