<svg width="156" height="156" viewBox="0 0 156 156" fill="none" xmlns="http://www.w3.org/2000/svg">
<path fill-rule="evenodd" clip-rule="evenodd" d="M78 151C118.317 151 151 118.317 151 78C151 37.6832 118.317 5 78 5C37.6832 5 5 37.6832 5 78C5 118.317 37.6832 151 78 151ZM78 156C121.078 156 156 121.078 156 78C156 34.9218 121.078 0 78 0C34.9218 0 0 34.9218 0 78C0 121.078 34.9218 156 78 156Z" fill="#F0F255"/>
<path d="M74.448 44.8H82.512L81.072 91.84H75.792L74.448 44.8ZM78.48 112.48C77.072 112.48 75.856 112 74.832 111.04C73.872 110.016 73.392 108.832 73.392 107.488C73.392 106.08 73.872 104.928 74.832 104.032C75.792 103.072 77.008 102.592 78.48 102.592C79.888 102.592 81.072 103.072 82.032 104.032C82.992 104.928 83.472 106.08 83.472 107.488C83.472 108.832 82.992 110.016 82.032 111.04C81.072 112 79.888 112.48 78.48 112.48Z" fill="#FDFD57"/>
</svg>
