<svg width="16" height="16" viewBox="0 0 16 16" fill="none" xmlns="http://www.w3.org/2000/svg">
<g clip-path="url(#clip0)">
<path fill-rule="evenodd" clip-rule="evenodd" d="M11.4825 10.3737C11.4204 9.89468 11.1688 9.44507 10.7277 9.02501C11.5751 9.06505 12.1921 8.65893 12.5791 7.80671C12.7217 7.49896 12.7881 7.19928 12.7785 6.90718C12.7688 6.61499 12.6881 6.33795 12.5356 6.0756C12.3833 5.81319 12.1931 5.57051 11.9657 5.34759C11.7381 5.12463 11.4601 4.89764 11.1319 4.66681L12.0992 2.99142L11.0872 2.40714L10.1468 4.03599C9.97156 3.93481 9.70176 3.78494 9.33741 3.58641L10.2855 1.94427L9.27337 1.35992L8.30609 3.03531C8.15889 2.95626 7.94513 2.83586 7.66474 2.67397L6.27539 1.86289L5.64588 2.95324L6.37531 3.37438C6.7083 3.56663 6.81624 3.82992 6.69921 4.16415L5.59756 6.07226C5.64143 6.09759 5.56993 6.05935 5.59368 6.07897L4.0507 8.75149C3.88521 8.95727 3.69288 8.99703 3.47378 8.87053L2.7444 8.44942L1.83819 9.54846L3.15259 10.3073C3.23585 10.3554 3.35561 10.426 3.51225 10.5191C3.66866 10.6124 3.78626 10.6818 3.86515 10.7274L2.88636 12.4227L3.89865 13.0071L4.86593 11.3317C5.04727 11.4425 5.31326 11.5989 5.66377 11.8013L4.70037 13.47L5.71238 14.0543L6.69116 12.359C7.06072 12.5487 7.39852 12.6997 7.70486 12.8113C8.01133 12.923 8.32163 13.0004 8.63586 13.0428C8.94999 13.0854 9.23735 13.0783 9.49776 13.0219C9.75818 12.9655 10.0133 12.8497 10.2634 12.675C10.5132 12.5 10.7444 12.2641 10.9567 11.967C11.3695 11.3841 11.5447 10.8529 11.4825 10.3737ZM8.66626 4.79432C8.69695 4.81203 8.78412 4.86087 8.9278 4.94085C9.07158 5.02081 9.19109 5.08689 9.28658 5.13904C9.38205 5.19125 9.50592 5.27015 9.65822 5.37581C9.81045 5.48143 9.9349 5.57697 10.0316 5.66231C10.1284 5.74765 10.2278 5.85386 10.3297 5.98065C10.4319 6.10753 10.5011 6.23028 10.5377 6.34887C10.5744 6.46756 10.5874 6.59925 10.5768 6.74384C10.5664 6.88851 10.519 7.03396 10.4345 7.18019C10.3629 7.30431 10.2779 7.406 10.1796 7.48525C10.0815 7.56448 9.97291 7.61559 9.85448 7.6388C9.73602 7.66203 9.62023 7.67504 9.50757 7.67789C9.395 7.6808 9.26497 7.66044 9.11787 7.61683C8.97077 7.57329 8.84388 7.53254 8.73733 7.49462C8.63068 7.45671 8.50317 7.39939 8.35474 7.32251C8.2063 7.24563 8.09412 7.18688 8.01842 7.14609C7.94264 7.10526 7.84081 7.04647 7.71278 6.96963C7.58472 6.89278 7.50992 6.84804 7.48796 6.83536L8.66626 4.79432ZM8.81596 10.9173C8.71534 10.9952 8.61054 11.053 8.50134 11.0905C8.39213 11.1277 8.26713 11.1443 8.12662 11.1399C7.98604 11.1356 7.85506 11.122 7.7339 11.0993C7.61252 11.0767 7.47308 11.0373 7.31542 10.9819C7.15747 10.9262 7.02188 10.8729 6.90799 10.822C6.79429 10.7711 6.66109 10.706 6.5082 10.6267C6.35553 10.5472 6.23741 10.4835 6.15419 10.4355C6.07093 10.3874 5.96646 10.3255 5.84065 10.25C5.71472 10.1745 5.63438 10.1266 5.5993 10.1064L6.89674 7.85913C6.93175 7.87934 7.03707 7.93726 7.21278 8.03268C7.38848 8.12816 7.53089 8.20763 7.64044 8.27087C7.74996 8.3341 7.89739 8.42795 8.08251 8.55268C8.26755 8.67712 8.41821 8.79058 8.5344 8.89313C8.65041 8.99562 8.77016 9.11934 8.89379 9.26467C9.01731 9.40982 9.10432 9.55016 9.15468 9.68561C9.20495 9.82118 9.22718 9.96973 9.22121 10.1318C9.21543 10.2939 9.16638 10.4547 9.07423 10.6143C9.00248 10.7385 8.91655 10.8394 8.81596 10.9173Z" fill="white"/>
</g>
<defs>
<clipPath id="clip0">
<path d="M0 0H16V16H0V0Z" fill="white"/>
</clipPath>
</defs>
</svg>
