<svg width="16" height="16" viewBox="0 0 16 16" fill="none" xmlns="http://www.w3.org/2000/svg">
<path d="M4 13L3.77639 13.4472C3.90604 13.512 4.05743 13.5174 4.19134 13.4619C4.32525 13.4065 4.42851 13.2956 4.47434 13.1581L4 13ZM6 7L6.41603 6.72265C6.3101 6.56376 6.12291 6.47908 5.93363 6.50442C5.74436 6.52977 5.58605 6.66072 5.52566 6.84189L6 7ZM8 10L7.58397 10.2773C7.69208 10.4395 7.88456 10.5241 8.07712 10.494C8.26968 10.464 8.42722 10.3248 8.48076 10.1374L8 10ZM10 3L10.4472 2.77639C10.355 2.59197 10.159 2.48306 9.95373 2.50215C9.74842 2.52123 9.57588 2.66438 9.51924 2.86264L10 3ZM12 7L11.5528 7.22361C11.6763 7.4706 11.9766 7.57071 12.2236 7.44721L12 7ZM14 6L14.3536 5.64645C14.2014 5.49427 13.9689 5.45654 13.7764 5.55279L14 6ZM1.77639 12.4472L3.77639 13.4472L4.22361 12.5528L2.22361 11.5528L1.77639 12.4472ZM4.47434 13.1581L6.47434 7.15811L5.52566 6.84189L3.52566 12.8419L4.47434 13.1581ZM5.58397 7.27735L7.58397 10.2773L8.41603 9.72265L6.41603 6.72265L5.58397 7.27735ZM8.48076 10.1374L10.4808 3.13736L9.51924 2.86264L7.51924 9.86264L8.48076 10.1374ZM9.55279 3.22361L11.5528 7.22361L12.4472 6.77639L10.4472 2.77639L9.55279 3.22361ZM13.6464 6.35355L14.6464 7.35355L15.3536 6.64645L14.3536 5.64645L13.6464 6.35355ZM12.2236 7.44721L14.2236 6.44721L13.7764 5.55279L11.7764 6.55279L12.2236 7.44721Z" fill="white" fill-opacity="0.4"/>
</svg>
