<svg width="24" height="18" viewBox="0 0 24 18" fill="none" xmlns="http://www.w3.org/2000/svg">
<path fill-rule="evenodd" clip-rule="evenodd" d="M5.4 15.3522C5.5 15.454 5.6 15.5559 5.8 15.6577C6.1 15.9632 6.6 16.2687 7.2 16.5743C8.4 17.2871 10 18 12 18C14 18 15.7 17.2871 16.8 16.5743C17.4 16.2687 17.8 15.8614 18.2 15.6577C18.4 15.5559 18.5 15.454 18.6 15.3522L18.8 15.2504C19 15.0467 19.1 14.7412 19.1 14.5375V8.32532L22 7.10325V10.4639C22 11.075 22.5 11.4823 23 11.4823C23.6 11.4823 24 10.9731 24 10.4639V5.57567C24 5.16832 23.7 4.76096 23.3 4.55728L12.3 0.0763791C12.1 -0.0254597 11.8 -0.0254597 11.5 0.0763791L0.5 4.55728C0.3 4.76096 0 5.06648 0 5.57567C0 6.08487 0.3 6.39038 0.7 6.59406L5 8.32532V14.5375C5 14.843 5.1 15.1485 5.3 15.2504L5.4 15.3522ZM16.9 14.0283C16.6 14.232 16.2 14.5375 15.7 14.843C14.7 15.454 13.4 15.9632 11.9 15.9632C10.4 15.9632 9.1 15.454 8.1 14.843C7.6 14.5375 7.3 14.3338 7 14.0283V9.14003L11.5 10.9731C11.7 11.075 12 11.075 12.3 10.9731L16.8 9.14003V14.0283H16.9Z" fill="#77797D"/>
</svg>
