<svg width="103" height="16" viewBox="0 0 103 16" fill="none" xmlns="http://www.w3.org/2000/svg">
<g clip-path="url(#clip0)">
<path d="M23.3498 10.4448V0.666992L9.72907 9.22255L12.6478 3.72255L7.78326 0.666992L0 5.55588V15.3337L4.86454 12.2781L1.94581 6.7781L15.5665 15.3337L23.3498 10.4448Z" fill="#00FFDD"/>
<path d="M69.534 5.90771C68.8975 5.14682 68.0327 4.76994 66.9327 4.76994C65.7842 4.76994 64.7741 5.23927 63.9093 6.18505V5.03305L63.8955 5.04016L60.4362 7.29438V15.2802H63.9093V8.86594C64.3383 8.26149 64.8986 7.95571 65.5767 7.95571C66.0056 7.95571 66.3515 8.09083 66.6144 8.36816C66.8773 8.64549 67.0088 9.07216 67.0088 9.64816V15.273H70.4818V8.98682C70.4818 7.6926 70.1636 6.6686 69.534 5.90771Z" fill="#21B3A4"/>
<path d="M44.9528 5.8366C44.3024 5.12549 43.4445 4.76994 42.3722 4.76994C41.7149 4.76994 41.0923 4.92638 40.4973 5.24638C39.9023 5.55927 39.4387 5.97171 39.1136 6.46949C38.8645 6.00016 38.4978 5.60194 38.0066 5.26771C37.5154 4.9406 36.9689 4.77705 36.367 4.77705C35.0455 4.77705 34.0285 5.26771 33.309 6.24905V5.04727L29.8359 7.31571V15.2802H33.309V8.88727C33.6895 8.25438 34.2153 7.94149 34.9002 7.94149C35.7374 7.94149 36.1594 8.49616 36.1594 9.59838V15.2873H39.6325V8.89438C39.9853 8.26149 40.5111 7.9486 41.203 7.9486C42.0401 7.9486 42.4621 8.50327 42.4621 9.60549V15.2944H45.9352V8.90149C45.9283 7.5646 45.6031 6.54771 44.9528 5.8366Z" fill="#21B3A4"/>
<path d="M57.15 14.0073C56.1053 15.0313 54.7631 15.5433 53.1304 15.5433C51.4976 15.5433 50.1554 15.0313 49.1107 14.0073C48.0522 12.9833 47.5195 11.7033 47.5195 10.153C47.5195 8.61705 48.0522 7.34416 49.1107 6.32016C50.1831 5.28194 51.5253 4.76994 53.1304 4.76994C54.7424 4.76994 56.0776 5.28905 57.15 6.32016C58.2085 7.34416 58.7412 8.61705 58.7412 10.153C58.7412 11.7033 58.2085 12.9833 57.15 14.0073ZM55.3235 10.153C55.3235 9.49171 55.116 8.93705 54.6939 8.48905C54.2719 8.04105 53.753 7.81349 53.1234 7.81349C52.4939 7.81349 51.975 8.04105 51.553 8.48905C51.1309 8.93705 50.9234 9.49171 50.9234 10.153C50.9234 10.8286 51.1309 11.3833 51.5391 11.8242C51.9542 12.265 52.48 12.4926 53.1165 12.4926C53.7599 12.4926 54.2857 12.2722 54.6939 11.8242C55.1021 11.3762 55.3235 10.8286 55.3235 10.153Z" fill="#21B3A4"/>
<path d="M86.1245 15.5362C84.5816 15.5362 83.2671 15.0526 82.1809 14.0855C81.1086 13.1042 80.5689 11.7957 80.5689 10.153C80.5689 8.63127 81.0532 7.35838 82.0218 6.32016C82.9904 5.28194 84.2634 4.76994 85.8477 4.76994C87.2729 4.76994 88.4214 5.27482 89.3 6.2846C90.1994 7.26594 90.656 8.55305 90.656 10.1388V11.0277H83.9867C84.7615 13.417 88.3591 13.5166 90.0887 12.0162V14.4766C89.134 15.1806 87.8126 15.5362 86.1245 15.5362ZM83.9659 9.12194H87.2591C87.2452 8.60994 87.0861 8.19749 86.7886 7.87038C86.4842 7.55038 86.1245 7.38682 85.6886 7.38682C85.232 7.38682 84.8445 7.54327 84.5332 7.84905C84.2219 8.16194 84.0282 8.5886 83.9659 9.12194Z" fill="#21B3A4"/>
<path d="M94.4889 15.273H90.7183L94.309 9.98949L90.9743 5.02594H94.7587L96.3845 7.5646L98.0104 5.02594H101.781L98.4462 9.96816L102.016 15.273H98.1902L96.343 12.4499L94.4889 15.273Z" fill="#21B3A4"/>
<path d="M77.0059 7.89171V15.273H73.5329V7.89171H71.8655V5.03305H73.5329V4.48549C73.5329 3.39749 73.8442 2.52282 74.4738 1.86149C75.1034 1.20016 76.0028 0.873047 77.1789 0.873047C78.2236 0.873047 79.1368 1.02238 79.9048 1.31394V3.75305C79.9048 3.75305 78.7978 3.75305 78.1959 3.75305C77.4003 3.75305 76.999 4.11571 76.999 4.84105V5.02594H79.9048V7.89171H77.0059Z" fill="#21B3A4"/>
</g>
<defs>
<clipPath id="clip0">
<path d="M0 0H102.4V16H0V0Z" fill="white"/>
</clipPath>
</defs>
</svg>
